<?xml version="1.0" encoding="utf-8"?>
<!-- Generator: Adobe Illustrator 17.0.0, SVG Export Plug-In . SVG Version: 6.00 Build 0)  -->
<!DOCTYPE svg PUBLIC "-//W3C//DTD SVG 1.1//EN" "http://www.w3.org/Graphics/SVG/1.1/DTD/svg11.dtd">
<svg version="1.1" id="Layer_1" xmlns="http://www.w3.org/2000/svg" xmlns:xlink="http://www.w3.org/1999/xlink" x="0px" y="0px"
	 width="585.393px" height="479.967px" viewBox="0 0 585.393 479.967" enable-background="new 0 0 585.393 479.967"
	 xml:space="preserve">
<g>
	<path fill-rule="evenodd" clip-rule="evenodd" fill="#418291" d="M324.361,354.89c82.26,0,149.353-22.648,149.353-50.421
		c0-27.771-67.094-50.42-149.353-50.42c-82.262,0-149.354,22.649-149.354,50.42C175.008,332.241,242.099,354.89,324.361,354.89z"/>
	<path fill-rule="evenodd" clip-rule="evenodd" fill="#0F424D" d="M467.329,319.091c-18.566,20.717-75.544,35.799-142.968,35.799
		c-67.422,0-124.4-15.082-142.967-35.799c18.566-20.715,75.545-35.798,142.967-35.798
		C391.785,283.293,448.762,298.376,467.329,319.091z"/>
	<path fill-rule="evenodd" clip-rule="evenodd" fill="#6B9916" d="M293.813,389.462c-12.879-15.563-27.424-35.855-41.059-58.363
		c-18.213,8.556-36.836,20.905-54.151,34.618c-23.233,18.398-41.219,36.016-55.396,53.24c-5.156,6.261-7.81,7.516-6.018,15.354
		c2.501,10.931,4.935,21.039,1.826,23.359c-5.476,4.087-6.408-11.566-15.052-9.102c-12.699,3.619-15.448,30.911-20.969,29.859
		c-10.135-1.935,10.285-26.855-4.594-34.042c-3.997-1.931-20.492,17.304-25.817,12.972c-7.968-6.479,12.896-13.511,12.81-19.483
		c-0.084-5.704-16.987,7.139-17.265,0.414c-0.483-11.724,18.218-6.438,41.248-18.103c5.567-2.818,5.644-4.253,9.489-9.15
		c15.358-19.564,39.038-43.775,65.681-64.875c17.759-14.061,36.954-26.854,56.085-36.175c-4.907-9.036-9.569-18.278-13.833-27.599
		c-8.045-9.974-21.213-20.157-34.819-26.523c-6.329-2.961-12.628-4.992-18.357-5.634c-4.753-0.534-8.911-0.099-11.99,1.626
		c-2.21,1.24-4.077,3.365-5.437,6.567c-5.422,12.771-6.843,29.504-8.12,44.506c-0.811,9.549-1.57,18.474-3.212,26.115
		c-1.979,9.204-2.669,7.615,0.667,17.186c3.031,8.697,5.894,13.581,3.165,16.063c-5.078,4.615-12.195-6.152-15.577-4.559
		c-12.004,5.663-13.74,37.11-19.334,36.656c-9.178-0.748,6.119-36.456-3.833-38.81c-14.206-3.351-19.698,18.553-27.369,13.543
		c-8.557-5.588,11.512-14.824,10.843-20.758c-0.641-5.668-18.323-0.275-19.188-6.945c-1.045-8.044,19.548,0.85,41.319-13.228
		c9.702-6.275,7.19-4.709,8.535-18.44c0.281-2.871,0.536-5.864,0.797-8.932c1.442-16.978,3.054-35.917,10.036-52.364
		c3.606-8.495,9.044-14.401,15.753-18.163c7.517-4.216,16.232-5.438,25.409-4.407c8.202,0.916,16.892,3.669,25.388,7.646
		c1.407,0.66,2.813,1.358,4.212,2.085c-1.002-4.781-2.645-9.415-4.842-13.706c-3.796-7.408-9.188-13.66-15.678-17.713
		c-6.24-3.895-13.565-5.782-21.503-4.683c-4.743,0.652-9.809,2.383-15.126,5.383c-5.248,2.961-10.53,5.272-15.779,6.995
		c-17.787,5.823-35.267,4.946-49.829-0.316c-12.46-4.506-22.924-12.288-29.868-21.973c-5.406-7.541-6.745-18.452-13.417-22.796
		c-11.575-7.54-34.444-6.847-32.574-13.045c1.936-6.415,21.35,0.79,22.9-4.679c1.625-5.727-14.947-18.184-8.079-22.358
		c5.83-3.543,22.876,22.177,26.921,20.357c7.529-3.388-4.043-36.939,6.211-35.921c5.587,0.554,3.88,30.324,10.91,36.271
		c5.171,4.376,13.641-6.361,17.895-0.902c2.762,3.544-8.086,11.497-12.34,18.927c-4.466,7.804,2.945,13.725,8.919,17.806
		c2.99,2.044,6.389,3.779,10.1,5.118c10.232,3.7,22.607,4.285,35.314,0.123c3.884-1.272,7.792-2.981,11.67-5.173
		c7.859-4.435,15.633-7.027,23.16-8.069c13.505-1.863,25.889,1.298,36.383,7.848c1.935,1.207,3.804,2.53,5.601,3.957
		c1.237-32.096,16.734-57.489,55.583-67.335c69.405-17.59,94.468,9.026,104.56,44.587c64.746-18.094,80.561-63.69,84.371-87.92
		c1.073-6.828,2.699-10.729-1.447-15.81c-7.599-9.302-16.168-17.648-14.209-21.501c3.163-6.221,10.699,7.272,17.346,0.97
		c9.765-9.26-8.055-29.362-4.292-33.733c8.14-9.453,11.988,30.089,22.179,25.323c4.81-2.251,6.691-19.492,12.456-23.149
		c10.113-6.417-2.581,23.493,2.601,25.962c5.345,2.546,9.422-9.77,14.003-5.064c8.92,9.162-22.224,23.117-23.044,31.986
		c-6.229,67.598-41.145,109.481-105.206,126.931c1.08,8.165,1.753,16.392,2.321,24.324c5.427-8.473,12.458-15.697,20.702-20.843
		c10.493-6.55,22.879-9.714,36.384-7.847c7.527,1.041,15.303,3.634,23.157,8.069c3.883,2.19,7.79,3.898,11.674,5.171
		c12.704,4.161,25.081,3.575,35.314-0.121c7.148-2.586,24.712-11.875,19.42-22.186c-3.921-7.635-15.598-16.006-12.743-19.667
		c4.255-5.458,12.722,5.278,17.895,0.903c7.031-5.947,8.063-38.594,13.649-39.147c10.254-1.018-4.056,35.409,3.473,38.797
		c4.045,1.82,21.092-23.899,26.921-20.357c6.869,4.173-9.703,16.631-8.078,22.358c1.55,5.466,20.963-1.736,22.897,4.68
		c2.129,7.048-27.754,5.183-36.614,16.66c-4.564,5.918-4.855,14.614-13.123,23.845c-6.728,7.519-15.729,13.551-26.12,17.308
		c-14.563,5.264-32.042,6.14-49.829,0.316c-5.248-1.721-10.531-4.031-15.779-6.993c-5.319-3.003-10.383-4.731-15.127-5.387
		c-7.938-1.097-15.262,0.789-21.501,4.686c-6.494,4.053-11.885,10.304-15.678,17.715c-2.857,5.574-4.779,11.726-5.57,18.032
		c-0.499,4.004-2.79,7.302-5.916,9.12c0.053,0.204,0.104,0.408,0.155,0.613c2.716-2.412,5.639-4.804,8.727-7.111
		c13.271-9.928,29.892-18.59,46.839-21.667c18.252-3.313,36.817-0.319,52.414,13.825c3.887,3.522,7.534,7.721,10.893,12.667
		c17.499,25.79,20.047,43.701,20.402,55.939c0.226,7.866-0.825,12.236,8.859,13.893c12.315,2.104,34.693,0.397,34.509,6.32
		c-0.212,6.726-18.327,3.265-18.411,8.971c-0.089,5.975,20.776,13.004,12.81,19.482c-5.325,4.33-21.818-14.903-25.815-12.97
		c-14.883,7.185,4.626,37.855-5.511,39.791c-5.52,1.055-7.356-31.99-20.056-35.611c-8.641-2.465-9.549,13.151-15.05,9.104
		c-3.46-2.545-0.397-14.454,2.486-26.543c2.41-10.104,3.528-14.384,2.723-24.403c-0.728-9.077-3.728-21.791-15.938-39.788
		c-2.249-3.316-4.646-6.083-7.147-8.353c-9.493-8.608-21.343-10.328-33.243-8.169c-13.207,2.398-26.481,9.388-37.256,17.447
		c-5.293,3.962-9.918,8.126-13.585,12.094c14.482,33.813,39.666,68.37,64.612,92.01L293.813,389.462z"/>
	<path fill-rule="evenodd" clip-rule="evenodd" fill="#FFFFFF" d="M259.04,175.978c12.497-0.519,23.026,9.703,23.52,22.82
		c0.489,13.122-9.241,24.178-21.738,24.692c-12.498,0.518-23.025-9.702-23.519-22.821
		C236.809,187.551,246.543,176.492,259.04,175.978z"/>
	<g>
		<path fill-rule="evenodd" clip-rule="evenodd" fill="#84B32D" d="M287.583,114.593c0.088,0.575,0.134,1.165,0.134,1.764
			c0,6.088-4.7,11.023-10.499,11.023c-5.353,0-9.768-4.207-10.416-9.643C274.269,116.156,281.185,115.121,287.583,114.593z"/>
		<path fill-rule="evenodd" clip-rule="evenodd" fill="#84B32D" d="M262.432,118.71c0.407,0.882,0.635,1.873,0.635,2.919
			c0,3.705-2.859,6.708-6.39,6.708c-3.39,0-6.163-2.772-6.378-6.275c2.524-0.852,5.161-1.631,7.917-2.331
			C259.643,119.369,261.044,119.034,262.432,118.71z"/>
		<path fill-rule="evenodd" clip-rule="evenodd" fill="#84B32D" d="M184.465,177.25c-0.685,5.395-5.082,9.555-10.405,9.555
			c-5.798,0-10.499-4.935-10.499-11.023c0-0.281,0.012-0.567,0.031-0.85C170.951,174.304,177.951,175.17,184.465,177.25z"/>
		<path fill-rule="evenodd" clip-rule="evenodd" fill="#84B32D" d="M137.592,183.275c0.264,0.97,0.407,1.992,0.407,3.05
			c0,6.089-4.7,11.023-10.499,11.023c-4.38,0-8.134-2.819-9.708-6.821c2.65-0.472,5.332-1.141,8.028-2.024
			c3.884-1.272,7.792-2.981,11.67-5.173L137.592,183.275z"/>
		<path fill-rule="evenodd" clip-rule="evenodd" fill="#84B32D" d="M390.985,153.333c0.518,1.305,0.804,2.736,0.804,4.238
			c0,6.088-4.698,11.023-10.499,11.023c-4.438,0-8.234-2.894-9.769-6.982C378.649,159.179,385.114,156.39,390.985,153.333z"/>
		<path fill-rule="evenodd" clip-rule="evenodd" fill="#84B32D" d="M420.435,131.395c1.495,1.905,2.393,4.346,2.393,7.007
			c0,6.087-4.7,11.022-10.499,11.022c-3.286,0-6.222-1.586-8.146-4.07C410.444,140.978,415.821,136.271,420.435,131.395z"/>
		<path fill-rule="evenodd" clip-rule="evenodd" fill="#84B32D" d="M458.123,195.866c-1.919,2.648-4.949,4.357-8.363,4.357
			c-5.798,0-10.499-4.937-10.499-11.022c0-0.724,0.068-1.43,0.195-2.116c3.521,1.281,7.075,2.918,10.642,4.933
			C452.765,193.524,455.446,194.801,458.123,195.866z"/>
		<path fill-rule="evenodd" clip-rule="evenodd" fill="#84B32D" d="M424.462,183.661c1.268,1.822,2.021,4.067,2.021,6.499
			c0,6.088-4.701,11.02-10.501,11.02c-5.797,0-10.498-4.933-10.498-11.02c0-1.899,0.457-3.68,1.261-5.238
			C412.348,183.556,418.281,183.081,424.462,183.661z"/>
		<path fill-rule="evenodd" clip-rule="evenodd" fill="#84B32D" d="M200.633,233.143c1.912,1.997,3.096,4.761,3.096,7.816
			c0,6.087-4.698,11.022-10.497,11.022c-5.8,0-10.5-4.936-10.5-11.022c0-5.945,4.484-10.789,10.094-11.014
			C195.429,230.883,198.041,231.955,200.633,233.143z"/>
		<path fill-rule="evenodd" clip-rule="evenodd" fill="#84B32D" d="M177.665,226.084c0.326,1.063,0.503,2.196,0.503,3.373
			c0,6.088-4.701,11.023-10.499,11.023c-5.8,0-10.499-4.936-10.499-11.023c0-0.699,0.062-1.385,0.182-2.047
			c5.828-1.846,12.163-2.264,18.734-1.525C176.61,225.942,177.137,226.008,177.665,226.084z"/>
		<path fill-rule="evenodd" clip-rule="evenodd" fill="#84B32D" d="M145.758,265.401c2.757,0,5.27,1.117,7.141,2.944
			c-1.499,5.811-2.498,12.042-3.25,18.319c-1.203,0.503-2.515,0.78-3.891,0.78c-5.797,0-10.497-4.934-10.497-11.021
			C135.261,270.335,139.961,265.401,145.758,265.401z"/>
		<ellipse fill-rule="evenodd" clip-rule="evenodd" fill="#84B32D" cx="122.936" cy="344.475" rx="10.497" ry="11.021"/>
		<path fill-rule="evenodd" clip-rule="evenodd" fill="#84B32D" d="M130.24,414.924c4.64,0,8.576,3.16,9.963,7.542
			c-3.085,3.6-4.402,5.702-3.033,11.76c-1.849,1.708-4.275,2.741-6.931,2.741c-5.799,0-10.499-4.935-10.499-11.021
			C119.741,419.858,124.441,414.924,130.24,414.924z"/>
		<path fill-rule="evenodd" clip-rule="evenodd" fill="#84B32D" d="M154.572,372.256c3.187,1.894,5.337,5.481,5.337,9.599
			c0,6.09-4.699,11.023-10.498,11.023c-4.11,0-7.665-2.477-9.389-6.086C144.594,381.999,149.463,377.127,154.572,372.256z"/>
		<path fill-rule="evenodd" clip-rule="evenodd" fill="#84B32D" d="M191.405,342.079c5.798,0,10.499,4.935,10.499,11.021
			c0,6.091-4.701,11.023-10.499,11.023c-5.799,0-10.499-4.933-10.499-11.023c0-1.763,0.394-3.428,1.096-4.906
			c0.844-0.678,1.694-1.355,2.544-2.033c1.662-1.313,3.339-2.621,5.026-3.915C190.168,342.137,190.78,342.079,191.405,342.079z"/>
		<path fill-rule="evenodd" clip-rule="evenodd" fill="#84B32D" d="M232.633,314.08c2.929,1.953,4.874,5.392,4.874,9.31
			c0,6.086-4.699,11.021-10.496,11.021c-5.774,0-10.463-4.896-10.499-10.948C221.85,320.115,227.234,316.972,232.633,314.08z"/>
		<path fill-rule="evenodd" clip-rule="evenodd" fill="#84B32D" d="M393.836,244.63c4.59,1.178,7.998,5.524,7.998,10.704
			c0,6.091-4.702,11.025-10.499,11.025c-5.8,0-10.501-4.935-10.501-11.025c0-0.547,0.04-1.09,0.116-1.617
			c1.039-0.83,2.107-1.655,3.193-2.465C387.207,248.958,390.451,246.735,393.836,244.63z"/>
		<path fill-rule="evenodd" clip-rule="evenodd" fill="#84B32D" d="M441.544,242.395c5.797,0,10.497,4.936,10.497,11.024
			c0,0.094-0.001,0.189-0.003,0.285c-5.518-1.146-11.318-1.019-17.129,0.036c-1.269,0.229-2.54,0.503-3.808,0.816
			c-0.036-0.373-0.056-0.754-0.056-1.138C431.046,247.33,435.745,242.395,441.544,242.395z"/>
		<path fill-rule="evenodd" clip-rule="evenodd" fill="#84B32D" d="M495.972,258.608c-1.577,3.989-5.326,6.793-9.695,6.793
			c-5.798,0-10.5-4.935-10.5-11.023c0-5.155,3.373-9.482,7.925-10.689c3.772,3.466,7.318,7.573,10.587,12.389
			C494.865,256.928,495.427,257.773,495.972,258.608z"/>
		<ellipse fill-rule="evenodd" clip-rule="evenodd" fill="#84B32D" cx="502.71" cy="338.723" rx="10.499" ry="11.022"/>
		<ellipse fill-rule="evenodd" clip-rule="evenodd" fill="#84B32D" cx="207.836" cy="209.329" rx="10.5" ry="11.022"/>
		<path fill-rule="evenodd" clip-rule="evenodd" fill="#84B32D" d="M216.298,145.084c4.345,1.35,7.516,5.571,7.516,10.569
			c0,6.088-4.701,11.024-10.498,11.024c-2.605,0-4.987-0.997-6.821-2.646C208.721,157.134,211.944,150.775,216.298,145.084z"/>
		<path fill-rule="evenodd" clip-rule="evenodd" fill="#84B32D" d="M355.415,145.659c-1.923,2.307-4.751,3.764-7.901,3.764
			c-5.799,0-10.499-4.935-10.499-11.021c0-4.104,2.139-7.684,5.305-9.582C347.715,133.577,351.995,139.292,355.415,145.659z"/>
		<path fill-rule="evenodd" clip-rule="evenodd" fill="#84B32D" d="M229.747,276.902c5.799,0,10.5,4.935,10.5,11.022
			c0,4.388-2.442,8.177-5.977,9.951c-2.597-5.124-5.096-10.293-7.473-15.487c-0.946-1.169-1.965-2.343-3.041-3.515
			C225.455,277.63,227.521,276.902,229.747,276.902z"/>
		<path fill-rule="evenodd" clip-rule="evenodd" fill="#84B32D" d="M263.527,336.328c5.796,0,10.498,4.936,10.498,11.023
			c0,3.888-1.918,7.306-4.817,9.268c-3.978-5.807-7.968-11.877-11.904-18.15C259.045,337.125,261.197,336.328,263.527,336.328z"/>
		<path fill-rule="evenodd" clip-rule="evenodd" fill="#84B32D" d="M399.029,312.478c-1.246,0.544-2.61,0.849-4.045,0.849
			c-5.797,0-10.498-4.936-10.498-11.025c0-3.627,1.669-6.846,4.244-8.854C391.846,299.832,395.303,306.2,399.029,312.478z"/>
		<path fill-rule="evenodd" clip-rule="evenodd" fill="#84B32D" d="M423.88,348.22c-1.047,0.367-2.17,0.567-3.333,0.567
			c-5.799,0-10.497-4.934-10.497-11.021c0-2.139,0.58-4.137,1.584-5.824C415.57,337.541,419.67,342.991,423.88,348.22z"/>
		<path fill-rule="evenodd" clip-rule="evenodd" fill="#84B32D" d="M305.399,114.47c1.466,1.23,2.402,3.121,2.402,5.242
			c0,3.706-2.859,6.71-6.391,6.71c-3.529,0-6.39-3.004-6.39-6.71c0-2.304,1.105-4.337,2.791-5.545
			C300.44,114.172,302.967,114.279,305.399,114.47z"/>
		<path fill-rule="evenodd" clip-rule="evenodd" fill="#84B32D" d="M335.131,123.495c-0.424,3.275-3.097,5.801-6.331,5.801
			c-3.531,0-6.391-3.004-6.391-6.71c0-1.674,0.584-3.204,1.546-4.378C328.049,119.637,331.762,121.414,335.131,123.495z"/>
		<path fill-rule="evenodd" clip-rule="evenodd" fill="#84B32D" d="M230.006,132.066c1.244,1.225,2.024,2.965,2.024,4.898
			c0,3.706-2.86,6.71-6.391,6.71c-2.296,0-4.31-1.272-5.436-3.181C223.078,137.444,226.335,134.625,230.006,132.066z"/>
		<path fill-rule="evenodd" clip-rule="evenodd" fill="#84B32D" d="M203.054,180.929c0.433,0.904,0.674,1.922,0.674,3.001
			c0,3.705-2.86,6.708-6.39,6.708c-3.528,0-6.392-3.003-6.392-6.708c0-1.34,0.376-2.592,1.025-3.642
			c1.731,0.855,3.42,1.795,5.061,2.82c1.935,1.207,3.804,2.53,5.601,3.957C202.712,184.991,202.854,182.945,203.054,180.929z"/>
		<path fill-rule="evenodd" clip-rule="evenodd" fill="#84B32D" d="M158.508,175.602c0.315,0.794,0.489,1.662,0.489,2.577
			c0,3.703-2.861,6.709-6.39,6.709c-3.229,0-5.898-2.515-6.328-5.782C150.404,177.465,154.486,176.311,158.508,175.602z"/>
		<path fill-rule="evenodd" clip-rule="evenodd" fill="#84B32D" d="M402.895,146.246c0.487,0.945,0.761,2.028,0.761,3.178
			c0,3.706-2.859,6.708-6.39,6.708c-2.313,0-4.341-1.29-5.461-3.224C395.773,150.804,399.465,148.574,402.895,146.246z"/>
		<path fill-rule="evenodd" clip-rule="evenodd" fill="#84B32D" d="M398.773,187.542c1.315,1.229,2.146,3.02,2.146,5.014
			c0,3.705-2.862,6.709-6.393,6.709c-3.269,0-5.966-2.581-6.343-5.906c0.779-0.541,1.569-1.064,2.373-1.564
			C393.182,190.157,395.924,188.729,398.773,187.542z"/>
		<ellipse fill-rule="evenodd" clip-rule="evenodd" fill="#84B32D" cx="144.389" cy="245.272" rx="6.39" ry="6.708"/>
		<ellipse fill-rule="evenodd" clip-rule="evenodd" fill="#84B32D" cx="137.999" cy="304.698" rx="6.391" ry="6.71"/>
		<path fill-rule="evenodd" clip-rule="evenodd" fill="#84B32D" d="M139.825,327.701c1.925,0,3.654,0.897,4.825,2.311
			c-1.227,5.517-1.863,6.768-1.142,9.881c-1.041,0.773-2.313,1.227-3.683,1.227c-3.529,0-6.391-3.003-6.391-6.709
			C133.434,330.704,136.296,327.701,139.825,327.701z"/>
		<ellipse fill-rule="evenodd" clip-rule="evenodd" fill="#84B32D" cx="416.439" cy="243.355" rx="6.39" ry="6.71"/>
		<path fill-rule="evenodd" clip-rule="evenodd" fill="#84B32D" d="M462.997,235.688c3.529,0,6.392,3.005,6.392,6.707
			c0,3.708-2.862,6.712-6.392,6.712c-3.528,0-6.391-3.004-6.391-6.712C456.606,238.693,459.469,235.688,462.997,235.688z"/>
		<ellipse fill-rule="evenodd" clip-rule="evenodd" fill="#84B32D" cx="498.601" cy="285.527" rx="6.39" ry="6.709"/>
		<path fill-rule="evenodd" clip-rule="evenodd" fill="#84B32D" d="M512.295,307.574c0.772,0,1.513,0.143,2.196,0.409
			c0.101,1.406,0.164,2.751,0.2,4.034c0.097,3.362-0.037,6.086,0.529,8.232c-0.877,0.475-1.873,0.743-2.926,0.743
			c-3.53,0-6.391-3.003-6.391-6.709C505.904,310.577,508.764,307.574,512.295,307.574z"/>
		<path fill-rule="evenodd" clip-rule="evenodd" fill="#84B32D" d="M532.726,326.863c0.364,0.84,0.565,1.773,0.565,2.754
			c0,3.708-2.863,6.712-6.391,6.712c-3.53,0-6.391-3.004-6.391-6.712c0-1.526,0.486-2.933,1.303-4.06
			c0.54,0.129,1.116,0.247,1.737,0.353C526.242,326.368,529.416,326.647,532.726,326.863z"/>
		<ellipse fill-rule="evenodd" clip-rule="evenodd" fill="#84B32D" cx="106.047" cy="431.218" rx="6.391" ry="6.71"/>
		<ellipse fill-rule="evenodd" clip-rule="evenodd" fill="#84B32D" cx="173.602" cy="373.71" rx="6.391" ry="6.71"/>
		<ellipse fill-rule="evenodd" clip-rule="evenodd" fill="#84B32D" cx="216.511" cy="258.691" rx="6.39" ry="6.709"/>
		<path fill-rule="evenodd" clip-rule="evenodd" fill="#84B32D" d="M408.089,326.785c-1.15,1.161-2.711,1.876-4.433,1.876
			c-3.527,0-6.39-3.005-6.39-6.71c0-2.729,1.554-5.078,3.78-6.127C403.311,319.52,405.661,323.183,408.089,326.785z"/>
		<ellipse fill-rule="evenodd" clip-rule="evenodd" fill="#84B32D" cx="350.595" cy="168.448" rx="6.392" ry="6.709"/>
		<ellipse fill-rule="evenodd" clip-rule="evenodd" fill="#84B32D" cx="361.483" cy="234.025" rx="6.39" ry="6.708"/>
		<path fill-rule="evenodd" clip-rule="evenodd" fill="#84B32D" d="M378.467,211.238c4.592,0,8.315,3.909,8.315,8.73
			c0,4.824-3.723,8.734-8.315,8.734c-4.596,0-8.318-3.91-8.318-8.734C370.149,215.147,373.872,211.238,378.467,211.238z"/>
		<ellipse fill-rule="evenodd" clip-rule="evenodd" fill="#84B32D" cx="376.382" cy="277.341" rx="6.392" ry="6.709"/>
	</g>
	<path fill-rule="evenodd" clip-rule="evenodd" fill="#BEEB6C" d="M254.742,140.675c-11.917,1.537-23.16,8.039-16.824,7.423
		c6.338-0.617-2.669,3.24-10.775,6.359c-8.107,3.115-9.27,8.894-3.028,6.788c6.242-2.106-4.636,4.697-4.881,11.101
		c-0.27,7.063,2.545,12.249,4.627,3.943c2.357-9.412,17.058-25.846,32.915-26.393C269.19,149.468,266.75,139.129,254.742,140.675z"
		/>
	<g>
		<path fill-rule="evenodd" clip-rule="evenodd" fill="#3A5409" d="M344.662,209.059c-17.49-1.12-23.425,21.936-51.758,32.628
			c-25.146,9.485-40.722,4.831-46.785,11.056c-6.065,6.223-5.615,37.727,51.142,14.422
			C354.521,243.652,354.857,209.713,344.662,209.059z"/>
		<path fill-rule="evenodd" clip-rule="evenodd" fill="#9D561B" d="M330.077,248.401c-7.538-6.734-16.695-9.563-24.432-9.826
			c-4.328-0.146-1.73,16.362-4.636,17.582c-2.588,1.089-11.717-12.638-14.09-9.554c-4.445,5.783-7.922,14.928-8.245,26.845
			c5.397-1.356,11.558-3.398,18.586-6.283C311.471,261.328,322.171,254.853,330.077,248.401z"/>
		<g>
			<path fill-rule="evenodd" clip-rule="evenodd" fill="#FFFFFF" d="M325.598,218.317c2.12,3.604,6.52,5.057,10.27,3.231
				c4.052-1.972,5.815-7.02,3.935-11.272c-0.119-0.274-0.251-0.538-0.396-0.792C334.348,210.677,330.146,214.051,325.598,218.317z"
				/>
			<path fill-rule="evenodd" clip-rule="evenodd" fill="#FFFFFF" d="M309.407,232.722c2.243,3.122,6.331,4.29,9.847,2.578
				c4.054-1.972,5.815-7.017,3.939-11.271c-0.352-0.796-0.807-1.507-1.338-2.127C318.247,225.383,314.264,229.169,309.407,232.722z"
				/>
			<path fill-rule="evenodd" clip-rule="evenodd" fill="#FFFFFF" d="M288.473,243.248c1.961,4.055,6.643,5.779,10.605,3.854
				c3.776-1.838,5.564-6.349,4.269-10.398c-3.12,1.829-6.574,3.523-10.443,4.983C291.391,242.254,289.915,242.775,288.473,243.248z"
				/>
			<path fill-rule="evenodd" clip-rule="evenodd" fill="#FFFFFF" d="M267.457,247.866c0.123,0.542,0.298,1.079,0.531,1.604
				c1.877,4.253,6.684,6.105,10.736,4.133c3.29-1.602,5.068-5.229,4.619-8.816C277.383,246.411,272.087,247.285,267.457,247.866z"/>
			<path fill-rule="evenodd" clip-rule="evenodd" fill="#FFFFFF" d="M247.895,251.362c0.121,0.475,0.283,0.945,0.488,1.409
				c1.875,4.254,6.682,6.104,10.735,4.134c3.227-1.574,5.002-5.097,4.639-8.614C256.598,249.053,251.314,249.35,247.895,251.362z"/>
			<path fill-rule="evenodd" clip-rule="evenodd" fill="#FFFFFF" d="M254.476,265.966c-2.544,1.237-4.185,3.686-4.588,6.391
				c3.456,2.253,8.564,3.611,15.869,3.202c0.386-1.771,0.239-3.684-0.545-5.46C263.333,265.847,258.527,263.994,254.476,265.966z"/>
			<path fill-rule="evenodd" clip-rule="evenodd" fill="#FFFFFF" d="M276.209,265.033c-3.608,1.754-5.401,5.949-4.425,9.85
				c4.536-0.732,9.743-2.037,15.705-4.051c-0.124-0.559-0.304-1.119-0.545-1.664C285.067,264.912,280.26,263.063,276.209,265.033z"
				/>
			<path fill-rule="evenodd" clip-rule="evenodd" fill="#FFFFFF" d="M297.266,260.74c-3.12,1.52-4.882,4.859-4.668,8.261
				c1.513-0.571,3.06-1.179,4.662-1.836c3.377-1.387,6.545-2.813,9.537-4.259C304.498,260.098,300.626,259.109,297.266,260.74z"/>
			<path fill-rule="evenodd" clip-rule="evenodd" fill="#FFFFFF" d="M315.015,249.555c-4.031,1.961-5.797,6.963-3.966,11.202
				c5.263-2.765,9.881-5.607,13.919-8.475C322.747,249.052,318.589,247.818,315.015,249.555z"/>
			<path fill-rule="evenodd" clip-rule="evenodd" fill="#FFFFFF" d="M331.389,236.486c-4.051,1.972-5.814,7.017-3.939,11.27
				c0.302,0.681,0.678,1.302,1.114,1.855c4.94-3.861,8.86-7.722,11.919-11.45C338.153,235.733,334.544,234.95,331.389,236.486z"/>
			<path fill-rule="evenodd" clip-rule="evenodd" fill="#FFFFFF" d="M343.894,220.762c-4.051,1.974-5.814,7.019-3.939,11.272
				c0.615,1.395,1.549,2.532,2.663,3.36c4.06-5.619,6.161-10.825,6.855-15.104C347.684,219.764,345.713,219.879,343.894,220.762z"/>
		</g>
	</g>
	<g>
		<path fill-rule="evenodd" clip-rule="evenodd" d="M260.713,189.884c6.254-0.258,11.525,4.857,11.771,11.427
			c0.246,6.567-4.626,12.102-10.881,12.359c-6.255,0.258-11.525-4.855-11.772-11.425
			C249.586,195.677,254.456,190.144,260.713,189.884z"/>
		<path fill-rule="evenodd" clip-rule="evenodd" fill="#FFFFFF" d="M267.264,190.218c2.688-0.11,4.955,2.088,5.061,4.91
			c0.108,2.825-1.987,5.202-4.679,5.315c-2.688,0.111-4.952-2.087-5.06-4.911C262.483,192.708,264.578,190.33,267.264,190.218z"/>
	</g>
	<path fill-rule="evenodd" clip-rule="evenodd" fill="#FFFFFF" d="M248.42,347.89c22.253,4.447,48.21,7,75.941,7
		c44.542,0,84.521-6.585,111.888-17.025h46.773v84.335H248.42V347.89z"/>
	<path fill-rule="evenodd" clip-rule="evenodd" fill="#FFFFFF" d="M293.923,181.657c8.834-0.365,16.277,6.857,16.626,16.133
		c0.346,9.275-6.534,17.093-15.368,17.457c-8.835,0.365-16.278-6.858-16.625-16.134
		C278.208,189.836,285.087,182.022,293.923,181.657z"/>
	<g>
		<path fill-rule="evenodd" clip-rule="evenodd" d="M295.465,192.088c4.421-0.184,8.147,3.433,8.322,8.076
			c0.173,4.644-3.271,8.556-7.693,8.738c-4.423,0.183-8.148-3.434-8.323-8.076C287.598,196.185,291.042,192.27,295.465,192.088z"/>
		<path fill-rule="evenodd" clip-rule="evenodd" fill="#FFFFFF" d="M300.097,192.324c1.9-0.08,3.502,1.476,3.576,3.47
			c0.075,1.996-1.404,3.678-3.306,3.757c-1.901,0.078-3.504-1.476-3.577-3.471C296.716,194.084,298.196,192.402,300.097,192.324z"/>
	</g>
	<path fill-rule="evenodd" clip-rule="evenodd" fill="#BEEB6C" d="M283.007,154.927c11.988-0.654,24.137,3.705,17.791,4.251
		c-6.341,0.545,3.163,2.708,11.664,4.303c8.498,1.595,10.599,7.076,4.103,6.137c-6.497-0.939,5.341,3.783,6.641,10.046
		c1.43,6.905-0.492,12.527-3.909,4.723c-3.871-8.84-21.064-22.353-36.77-20.007C270.226,166.215,270.926,155.587,283.007,154.927z"
		/>
</g>
</svg>
