<?xml version="1.0" encoding="utf-8"?>
<!-- Generator: Adobe Illustrator 17.0.0, SVG Export Plug-In . SVG Version: 6.00 Build 0)  -->
<!DOCTYPE svg PUBLIC "-//W3C//DTD SVG 1.1//EN" "http://www.w3.org/Graphics/SVG/1.1/DTD/svg11.dtd">
<svg version="1.1" id="Layer_1" xmlns="http://www.w3.org/2000/svg" xmlns:xlink="http://www.w3.org/1999/xlink" x="0px" y="0px"
	 width="649px" height="800px" viewBox="314.5 0 649 800" enable-background="new 314.5 0 649 800" xml:space="preserve">
<g>
	<g>
		<path fill="#082947" d="M639.919,0c-85.099,0-154.283,69.184-154.283,154.283v3.735H383.646c-8.283,0-15.266,6.334-16.078,14.616
			l-46.447,524.076c0,0.487,0,0.974,0,1.462c0,56.192,51.807,101.827,115.631,101.827h406.496
			c63.825,0,115.631-45.635,115.631-101.827c0-0.487,0-0.974,0-1.462l-46.61-524.076c-0.812-8.283-7.633-14.616-16.078-14.616
			H794.202v-3.735C794.202,69.184,725.018,0,639.919,0z M517.791,154.283c0-67.397,54.73-122.127,122.128-122.127
			s122.128,54.73,122.128,122.127v3.735H517.791V154.283L517.791,154.283z M881.413,190.175l45.148,508.648
			c-0.487,38.165-37.678,69.022-83.475,69.022H436.752c-45.798,0-82.988-30.857-83.475-69.022l45.148-508.648h87.211v74.381
			c0,8.932,7.146,16.078,16.078,16.078s16.078-7.146,16.078-16.078v-74.381h244.255v74.381c0,8.932,7.146,16.078,16.078,16.078
			s16.078-7.146,16.078-16.078v-74.381L881.413,190.175L881.413,190.175z"/>
		<path fill="#3C92CA" d="M726.155,416.728L604.84,538.043l-51.157-51.157c-6.334-6.334-16.403-6.334-22.737,0
			c-6.334,6.334-6.334,16.403,0,22.736l62.525,62.525c3.086,3.086,7.308,4.71,11.368,4.71c4.06,0,8.283-1.624,11.368-4.71
			l132.684-132.684c6.334-6.334,6.334-16.403,0-22.736C742.558,410.556,732.489,410.556,726.155,416.728z"/>
	</g>
</g>
</svg>
