<?xml version="1.0" encoding="utf-8"?>
<!-- Generator: Adobe Illustrator 17.0.0, SVG Export Plug-In . SVG Version: 6.00 Build 0)  -->
<!DOCTYPE svg PUBLIC "-//W3C//DTD SVG 1.1//EN" "http://www.w3.org/Graphics/SVG/1.1/DTD/svg11.dtd">
<svg version="1.1" id="Layer_1" xmlns="http://www.w3.org/2000/svg" xmlns:xlink="http://www.w3.org/1999/xlink" x="0px" y="0px"
	 width="217.882px" height="81.667px" viewBox="0 0 217.882 81.667" enable-background="new 0 0 217.882 81.667"
	 xml:space="preserve">
<path fill="none" stroke="#EE4C76" stroke-miterlimit="10" d="M217.222,52.222c0,1.657-1.343,3-3,3H4.667c-1.657,0-3-1.343-3-3
	V4.889c0-1.657,1.343-3,3-3h209.556c1.657,0,3,1.343,3,3V52.222z"/>
<g>
	<path fill="#313641" d="M58.631,33.535l-0.304-1.345c-0.534,0.608-1.067,1.03-1.601,1.265c-0.534,0.235-1.147,0.352-1.841,0.352
		c-0.854,0-1.62-0.157-2.297-0.472c-0.678-0.314-1.251-0.744-1.721-1.289c-0.47-0.544-0.83-1.179-1.081-1.905
		s-0.376-1.499-0.376-2.321c0-0.811,0.125-1.579,0.376-2.305s0.611-1.361,1.081-1.905c0.469-0.544,1.043-0.977,1.721-1.297
		c0.677-0.32,1.443-0.48,2.297-0.48c0.619,0,1.208,0.083,1.769,0.248c0.56,0.166,1.059,0.411,1.497,0.736
		c0.438,0.325,0.8,0.733,1.088,1.225c0.288,0.491,0.47,1.056,0.544,1.697h-1.953c-0.054-0.374-0.168-0.702-0.344-0.985
		c-0.176-0.283-0.397-0.52-0.665-0.712c-0.267-0.192-0.565-0.336-0.896-0.432c-0.331-0.096-0.678-0.144-1.041-0.144
		c-0.608,0-1.134,0.123-1.577,0.368c-0.443,0.245-0.803,0.573-1.081,0.984c-0.277,0.411-0.483,0.877-0.616,1.4s-0.2,1.057-0.2,1.601
		c0,0.544,0.067,1.078,0.2,1.601s0.339,0.99,0.616,1.401c0.277,0.411,0.638,0.739,1.081,0.984c0.443,0.245,0.968,0.368,1.577,0.368
		c0.512,0.01,0.966-0.056,1.36-0.2c0.395-0.144,0.729-0.352,1-0.625c0.272-0.272,0.478-0.605,0.616-1
		c0.139-0.395,0.213-0.833,0.224-1.313h-3.041v-1.521h4.866v6.019H58.631z"/>
	<path fill="#313641" d="M63.539,25.26v1.601h0.032c0.053-0.224,0.157-0.443,0.312-0.656c0.155-0.213,0.342-0.408,0.561-0.584
		c0.219-0.176,0.461-0.318,0.728-0.424c0.267-0.107,0.539-0.16,0.816-0.16c0.213,0,0.36,0.005,0.44,0.016
		c0.08,0.011,0.163,0.021,0.248,0.032v1.761c-0.128-0.021-0.259-0.04-0.393-0.056c-0.133-0.016-0.264-0.024-0.392-0.024
		c-0.309,0-0.6,0.061-0.872,0.184c-0.272,0.123-0.51,0.304-0.712,0.544s-0.363,0.536-0.48,0.888
		c-0.118,0.353-0.176,0.758-0.176,1.217v3.937h-1.825V25.26H63.539z"/>
	<path fill="#313641" d="M74.477,32.175c0.059,0.096,0.174,0.144,0.344,0.144h0.192c0.075,0,0.16-0.011,0.256-0.032v1.265
		c-0.064,0.021-0.146,0.045-0.248,0.072c-0.102,0.027-0.206,0.051-0.312,0.072c-0.107,0.021-0.213,0.037-0.32,0.048
		c-0.106,0.011-0.197,0.016-0.272,0.016c-0.374,0-0.683-0.075-0.928-0.224c-0.246-0.149-0.406-0.411-0.48-0.784
		c-0.363,0.352-0.808,0.608-1.336,0.768s-1.038,0.24-1.529,0.24c-0.374,0-0.731-0.051-1.072-0.152
		c-0.341-0.102-0.643-0.251-0.904-0.448c-0.262-0.198-0.47-0.448-0.625-0.752s-0.232-0.659-0.232-1.064
		c0-0.512,0.093-0.928,0.28-1.249c0.187-0.32,0.432-0.571,0.736-0.752c0.304-0.181,0.646-0.312,1.024-0.392
		c0.378-0.08,0.76-0.141,1.144-0.184c0.331-0.064,0.646-0.109,0.945-0.136c0.298-0.027,0.563-0.072,0.792-0.136
		s0.411-0.163,0.544-0.296c0.133-0.133,0.2-0.333,0.2-0.6c0-0.235-0.056-0.427-0.168-0.576c-0.112-0.149-0.25-0.264-0.416-0.344
		s-0.35-0.133-0.552-0.16c-0.203-0.026-0.395-0.04-0.576-0.04c-0.512,0-0.934,0.107-1.265,0.32c-0.331,0.213-0.518,0.544-0.56,0.993
		h-1.825c0.032-0.534,0.16-0.977,0.384-1.329c0.224-0.353,0.509-0.635,0.856-0.849c0.347-0.213,0.739-0.363,1.177-0.448
		c0.438-0.085,0.886-0.128,1.344-0.128c0.406,0,0.806,0.043,1.201,0.128c0.395,0.085,0.75,0.224,1.064,0.417
		c0.315,0.192,0.568,0.44,0.76,0.744s0.288,0.675,0.288,1.112v4.258C74.389,31.918,74.419,32.078,74.477,32.175z M71.54,29.718
		c-0.405,0.037-0.811,0.093-1.216,0.168c-0.192,0.032-0.379,0.077-0.561,0.136c-0.181,0.059-0.341,0.139-0.48,0.24
		c-0.139,0.102-0.248,0.235-0.328,0.4s-0.12,0.365-0.12,0.6c0,0.203,0.059,0.374,0.176,0.512c0.117,0.139,0.259,0.248,0.424,0.328
		c0.166,0.08,0.347,0.136,0.544,0.168c0.197,0.032,0.376,0.048,0.536,0.048c0.203,0,0.421-0.027,0.656-0.08
		c0.235-0.054,0.456-0.144,0.665-0.272c0.208-0.128,0.381-0.291,0.52-0.488c0.139-0.198,0.208-0.44,0.208-0.729v-1.36
		C72.287,29.571,71.946,29.68,71.54,29.718z"/>
	<path fill="#313641" d="M78.227,22.106v4.226h0.032c0.128-0.203,0.283-0.384,0.464-0.544c0.181-0.16,0.381-0.296,0.6-0.408
		c0.219-0.112,0.448-0.197,0.688-0.256c0.24-0.059,0.478-0.088,0.712-0.088c0.651,0,1.219,0.115,1.705,0.344
		c0.486,0.229,0.889,0.544,1.208,0.944c0.32,0.4,0.561,0.867,0.72,1.4c0.16,0.534,0.24,1.104,0.24,1.713
		c0,0.555-0.072,1.094-0.216,1.617s-0.363,0.984-0.656,1.384c-0.293,0.4-0.665,0.721-1.113,0.96c-0.448,0.24-0.976,0.36-1.584,0.36
		c-0.277,0-0.558-0.019-0.84-0.056c-0.283-0.037-0.552-0.109-0.808-0.216c-0.256-0.107-0.488-0.246-0.696-0.417
		c-0.208-0.17-0.382-0.395-0.521-0.672h-0.032v1.136h-1.729V22.106H78.227z M82.629,28.317c-0.096-0.352-0.24-0.664-0.432-0.936
		c-0.192-0.272-0.432-0.491-0.72-0.656c-0.288-0.166-0.619-0.249-0.993-0.249c-0.768,0-1.347,0.267-1.736,0.801
		c-0.39,0.533-0.584,1.243-0.584,2.128c0,0.417,0.051,0.803,0.152,1.161c0.101,0.357,0.253,0.664,0.456,0.92
		s0.445,0.459,0.728,0.608c0.283,0.149,0.611,0.224,0.984,0.224c0.417,0,0.769-0.085,1.057-0.256
		c0.288-0.171,0.525-0.392,0.712-0.664c0.187-0.272,0.32-0.582,0.4-0.929c0.08-0.347,0.12-0.702,0.12-1.064
		C82.773,29.032,82.725,28.669,82.629,28.317z"/>
	<path fill="#313641" d="M88.003,22.106v4.226h0.032c0.128-0.203,0.283-0.384,0.464-0.544c0.182-0.16,0.382-0.296,0.601-0.408
		c0.219-0.112,0.448-0.197,0.688-0.256c0.24-0.059,0.478-0.088,0.712-0.088c0.651,0,1.219,0.115,1.705,0.344
		c0.486,0.229,0.889,0.544,1.208,0.944c0.32,0.4,0.561,0.867,0.721,1.4c0.16,0.534,0.24,1.104,0.24,1.713
		c0,0.555-0.072,1.094-0.216,1.617s-0.363,0.984-0.656,1.384c-0.293,0.4-0.665,0.721-1.113,0.96c-0.448,0.24-0.976,0.36-1.584,0.36
		c-0.277,0-0.558-0.019-0.84-0.056c-0.283-0.037-0.552-0.109-0.808-0.216c-0.256-0.107-0.488-0.246-0.696-0.417
		c-0.208-0.17-0.382-0.395-0.521-0.672h-0.032v1.136h-1.729V22.106H88.003z M92.405,28.317c-0.096-0.352-0.24-0.664-0.432-0.936
		c-0.192-0.272-0.432-0.491-0.72-0.656c-0.288-0.166-0.619-0.249-0.993-0.249c-0.768,0-1.347,0.267-1.736,0.801
		c-0.39,0.533-0.584,1.243-0.584,2.128c0,0.417,0.051,0.803,0.152,1.161c0.101,0.357,0.253,0.664,0.456,0.92
		s0.445,0.459,0.728,0.608c0.283,0.149,0.611,0.224,0.984,0.224c0.417,0,0.769-0.085,1.057-0.256
		c0.288-0.171,0.525-0.392,0.712-0.664c0.187-0.272,0.32-0.582,0.4-0.929c0.08-0.347,0.12-0.702,0.12-1.064
		C92.549,29.032,92.501,28.669,92.405,28.317z"/>
	<path fill="#313641" d="M108.774,22.106v1.729h-3.634v9.7h-2v-9.7h-3.618v-1.729H108.774z"/>
	<path fill="#313641" d="M111.667,22.106v4.242h0.032c0.224-0.374,0.558-0.686,1-0.937c0.443-0.25,0.937-0.376,1.481-0.376
		c0.907,0,1.622,0.235,2.145,0.705c0.523,0.469,0.785,1.173,0.785,2.113v5.682h-1.825v-5.202c-0.021-0.651-0.16-1.123-0.417-1.417
		c-0.256-0.293-0.656-0.44-1.2-0.44c-0.31,0-0.587,0.056-0.833,0.168c-0.246,0.112-0.454,0.267-0.624,0.464
		c-0.171,0.198-0.304,0.43-0.4,0.696c-0.096,0.267-0.144,0.55-0.144,0.849v4.882h-1.825V22.106H111.667z"/>
	<path fill="#313641" d="M120.587,30.798c0.091,0.299,0.227,0.561,0.408,0.785c0.181,0.224,0.411,0.403,0.688,0.536
		c0.277,0.133,0.608,0.2,0.992,0.2c0.534,0,0.963-0.115,1.289-0.344c0.325-0.229,0.568-0.574,0.728-1.033h1.729
		c-0.096,0.448-0.262,0.849-0.496,1.201c-0.235,0.352-0.518,0.648-0.849,0.888c-0.331,0.24-0.702,0.422-1.112,0.544
		c-0.411,0.123-0.84,0.184-1.289,0.184c-0.651,0-1.227-0.107-1.729-0.32c-0.502-0.213-0.926-0.512-1.272-0.896
		c-0.347-0.384-0.608-0.843-0.785-1.377c-0.176-0.533-0.264-1.12-0.264-1.761c0-0.587,0.094-1.144,0.28-1.672s0.454-0.993,0.8-1.393
		c0.347-0.4,0.766-0.718,1.256-0.953c0.491-0.235,1.046-0.352,1.665-0.352c0.651,0,1.235,0.136,1.752,0.408s0.947,0.632,1.289,1.081
		s0.59,0.963,0.744,1.544c0.155,0.582,0.195,1.182,0.12,1.801h-6.083C120.451,30.19,120.496,30.499,120.587,30.798z M124.524,27.837
		c-0.101-0.267-0.24-0.499-0.416-0.696s-0.39-0.357-0.64-0.48c-0.251-0.123-0.531-0.184-0.84-0.184c-0.32,0-0.611,0.056-0.873,0.168
		c-0.261,0.112-0.485,0.267-0.672,0.464c-0.187,0.198-0.336,0.43-0.448,0.696c-0.112,0.267-0.173,0.555-0.184,0.865h4.258
		C124.687,28.381,124.626,28.103,124.524,27.837z"/>
	<path fill="#313641" d="M137.364,22.106c0.875,0,1.632,0.149,2.273,0.448c0.64,0.299,1.163,0.707,1.568,1.225
		c0.406,0.518,0.707,1.123,0.904,1.817c0.198,0.693,0.296,1.435,0.296,2.225s-0.099,1.531-0.296,2.225
		c-0.197,0.693-0.499,1.299-0.904,1.816c-0.405,0.518-0.928,0.926-1.568,1.225c-0.641,0.299-1.398,0.448-2.273,0.448h-4.738V22.106
		H137.364z M136.596,31.902c0.779,0,1.417-0.104,1.913-0.312c0.497-0.208,0.886-0.496,1.169-0.864
		c0.283-0.368,0.475-0.8,0.576-1.296c0.101-0.497,0.152-1.033,0.152-1.609s-0.051-1.112-0.152-1.608
		c-0.102-0.497-0.293-0.929-0.576-1.297c-0.283-0.368-0.672-0.656-1.169-0.864c-0.496-0.208-1.134-0.312-1.913-0.312h-1.969v8.163
		H136.596z"/>
	<path fill="#313641" d="M145.482,30.798c0.091,0.299,0.227,0.561,0.408,0.785c0.181,0.224,0.411,0.403,0.688,0.536
		c0.277,0.133,0.608,0.2,0.992,0.2c0.534,0,0.963-0.115,1.289-0.344c0.325-0.229,0.568-0.574,0.728-1.033h1.729
		c-0.096,0.448-0.262,0.849-0.496,1.201c-0.235,0.352-0.518,0.648-0.849,0.888c-0.331,0.24-0.702,0.422-1.112,0.544
		c-0.411,0.123-0.84,0.184-1.289,0.184c-0.651,0-1.227-0.107-1.729-0.32c-0.502-0.213-0.926-0.512-1.272-0.896
		c-0.347-0.384-0.608-0.843-0.785-1.377c-0.176-0.533-0.264-1.12-0.264-1.761c0-0.587,0.094-1.144,0.28-1.672s0.454-0.993,0.8-1.393
		c0.347-0.4,0.766-0.718,1.256-0.953c0.491-0.235,1.046-0.352,1.665-0.352c0.651,0,1.235,0.136,1.752,0.408s0.947,0.632,1.289,1.081
		s0.59,0.963,0.744,1.544c0.155,0.582,0.195,1.182,0.12,1.801h-6.083C145.346,30.19,145.391,30.499,145.482,30.798z M149.42,27.837
		c-0.101-0.267-0.24-0.499-0.416-0.696s-0.39-0.357-0.64-0.48c-0.251-0.123-0.531-0.184-0.84-0.184c-0.32,0-0.611,0.056-0.873,0.168
		c-0.261,0.112-0.485,0.267-0.672,0.464c-0.187,0.198-0.336,0.43-0.448,0.696c-0.112,0.267-0.173,0.555-0.184,0.865h4.258
		C149.582,28.381,149.521,28.103,149.42,27.837z"/>
	<path fill="#313641" d="M159.836,32.175c0.059,0.096,0.174,0.144,0.344,0.144h0.192c0.075,0,0.16-0.011,0.256-0.032v1.265
		c-0.064,0.021-0.147,0.045-0.248,0.072c-0.102,0.027-0.206,0.051-0.312,0.072c-0.107,0.021-0.213,0.037-0.32,0.048
		c-0.106,0.011-0.197,0.016-0.272,0.016c-0.374,0-0.683-0.075-0.928-0.224c-0.246-0.149-0.406-0.411-0.48-0.784
		c-0.363,0.352-0.808,0.608-1.336,0.768s-1.038,0.24-1.529,0.24c-0.374,0-0.731-0.051-1.072-0.152
		c-0.341-0.102-0.643-0.251-0.904-0.448c-0.262-0.198-0.47-0.448-0.625-0.752s-0.232-0.659-0.232-1.064
		c0-0.512,0.093-0.928,0.28-1.249c0.187-0.32,0.432-0.571,0.736-0.752c0.304-0.181,0.646-0.312,1.024-0.392
		c0.378-0.08,0.76-0.141,1.144-0.184c0.331-0.064,0.646-0.109,0.945-0.136c0.298-0.027,0.563-0.072,0.792-0.136
		s0.411-0.163,0.544-0.296c0.133-0.133,0.2-0.333,0.2-0.6c0-0.235-0.056-0.427-0.168-0.576c-0.112-0.149-0.25-0.264-0.416-0.344
		s-0.35-0.133-0.552-0.16c-0.203-0.026-0.395-0.04-0.576-0.04c-0.512,0-0.934,0.107-1.265,0.32c-0.331,0.213-0.518,0.544-0.56,0.993
		h-1.825c0.032-0.534,0.16-0.977,0.384-1.329c0.224-0.353,0.509-0.635,0.856-0.849c0.347-0.213,0.739-0.363,1.177-0.448
		c0.438-0.085,0.886-0.128,1.344-0.128c0.406,0,0.806,0.043,1.201,0.128c0.395,0.085,0.75,0.224,1.064,0.417
		c0.315,0.192,0.568,0.44,0.76,0.744s0.288,0.675,0.288,1.112v4.258C159.748,31.918,159.778,32.078,159.836,32.175z M156.899,29.718
		c-0.405,0.037-0.811,0.093-1.216,0.168c-0.192,0.032-0.379,0.077-0.561,0.136c-0.181,0.059-0.341,0.139-0.48,0.24
		c-0.139,0.102-0.248,0.235-0.328,0.4s-0.12,0.365-0.12,0.6c0,0.203,0.059,0.374,0.176,0.512c0.117,0.139,0.259,0.248,0.424,0.328
		c0.166,0.08,0.347,0.136,0.544,0.168c0.197,0.032,0.376,0.048,0.536,0.048c0.203,0,0.421-0.027,0.656-0.08
		c0.235-0.054,0.456-0.144,0.665-0.272c0.208-0.128,0.381-0.291,0.52-0.488c0.139-0.198,0.208-0.44,0.208-0.729v-1.36
		C157.646,29.571,157.305,29.68,156.899,29.718z"/>
	<path fill="#313641" d="M163.586,22.106v11.429h-1.825V22.106H163.586z"/>
</g>
<g>
	<g>
		<path fill="#1B89BC" d="M205.308,65.566l11.762-3.063L187.44,45.124l8.575,32.691l5.89-9.71l8.242,11.064
			c0.532,0.714,1.427,0.998,2.239,0.786c0.257-0.067,0.506-0.184,0.732-0.352c0.94-0.7,1.135-2.03,0.434-2.971L205.308,65.566z"/>
		<path fill="#112A47" d="M212.591,80.743c-1.163,0.303-2.378-0.124-3.096-1.087l-7.521-10.096l-5.264,8.678
			c-0.169,0.279-0.489,0.43-0.812,0.383c-0.323-0.047-0.587-0.283-0.669-0.598l-8.575-32.691c-0.083-0.318,0.033-0.656,0.295-0.854
			c0.262-0.199,0.618-0.22,0.902-0.053l29.629,17.379c0.284,0.166,0.439,0.487,0.394,0.813c-0.045,0.326-0.282,0.592-0.6,0.675
			c0,0,0,0,0,0l-10.593,2.758l7.523,10.099c0.967,1.298,0.698,3.141-0.601,4.108C213.298,80.484,212.957,80.647,212.591,80.743z
			 M201.7,67.319c0.054-0.014,0.11-0.023,0.166-0.025c0.27-0.013,0.529,0.109,0.691,0.326l8.242,11.064
			c0.32,0.43,0.863,0.621,1.382,0.485c0.163-0.042,0.315-0.116,0.451-0.218c0.579-0.431,0.699-1.254,0.268-1.833l-8.244-11.067
			c-0.162-0.217-0.205-0.5-0.115-0.755c0.09-0.255,0.3-0.449,0.562-0.517c0,0,0,0,0,0l9.862-2.568l-26.239-15.391l7.589,28.934
			l4.896-8.07C201.321,67.502,201.498,67.372,201.7,67.319z"/>
	</g>
	<g>
		<path fill="#142B47" d="M193.296,55.864c-0.434,0.113-0.878-0.147-0.992-0.582l-0.656-2.517c-0.113-0.434,0.147-0.878,0.582-0.992
			c0.434-0.113,0.878,0.147,0.992,0.582l0.656,2.517C193.991,55.307,193.73,55.751,193.296,55.864z"/>
	</g>
	<g>
		<path fill="#142B47" d="M197.109,70.496c-0.434,0.113-0.878-0.147-0.992-0.582l-2.788-10.699
			c-0.113-0.434,0.147-0.878,0.582-0.992c0.434-0.113,0.878,0.147,0.992,0.582l2.788,10.699
			C197.804,69.939,197.544,70.383,197.109,70.496z"/>
	</g>
</g>
</svg>
