<?xml version="1.0" encoding="utf-8"?>
<!-- Generator: Adobe Illustrator 17.0.0, SVG Export Plug-In . SVG Version: 6.00 Build 0)  -->
<!DOCTYPE svg PUBLIC "-//W3C//DTD SVG 1.1//EN" "http://www.w3.org/Graphics/SVG/1.1/DTD/svg11.dtd">
<svg version="1.1" id="Layer_1" xmlns="http://www.w3.org/2000/svg" xmlns:xlink="http://www.w3.org/1999/xlink" x="0px" y="0px"
	 width="612px" height="480px" viewBox="0 155.5 612 480" enable-background="new 0 155.5 612 480" xml:space="preserve">
<circle fill="#314E55" cx="100.038" cy="390.115" r="5.885"/>
<path fill="#D8D8D8" d="M141.231,390.115c0-22.711-18.493-41.193-41.226-41.193H23.538v82.385h76.465
	C122.738,431.307,141.231,412.826,141.231,390.115z M70.615,390.115c0-16.223,13.195-29.423,29.423-29.423
	s29.423,13.2,29.423,29.423c0,16.223-13.195,29.423-29.423,29.423S70.615,406.338,70.615,390.115z"/>
<path fill="#EB9532" d="M553.073,184.154H94.234c-19.516,0-35.388,15.832-35.388,35.29v105.941h41.158
	c35.71,0,64.766,29.038,64.766,64.731s-29.056,64.731-64.766,64.731H58.846v117.64c0,19.499,15.873,35.36,35.388,35.36h458.839
	c19.516,0,35.388-15.809,35.388-35.245V219.399C588.462,199.963,572.589,184.154,553.073,184.154z M541.385,572.538H411.923V549
	h129.462V572.538L541.385,572.538z"/>
<g>
	<path fill="#112A47" d="M553.073,160.615H94.234c-32.492,0-58.927,26.389-58.927,58.828v105.941H23.538V219.462
		c0-6.5-5.264-11.769-11.769-11.769S0,212.962,0,219.462v117.693v105.923v129.651c0,6.5,5.264,11.769,11.769,11.769
		s11.769-5.27,11.769-11.769V454.846h11.769v117.64c0,32.474,26.434,58.898,58.927,58.898h458.839
		c32.492,0,58.927-26.372,58.927-58.783V219.399C612,186.986,585.566,160.615,553.073,160.615z M23.538,348.923h76.465
		c22.734,0,41.226,18.481,41.226,41.193s-18.493,41.193-41.226,41.193H23.538V348.923z M588.462,572.601
		c0,19.436-15.873,35.245-35.388,35.245H94.234c-19.516,0-35.388-15.861-35.388-35.36v-117.64h41.158
		c35.71,0,64.766-29.038,64.766-64.731s-29.056-64.731-64.766-64.731H58.846V219.444c0-19.458,15.873-35.29,35.388-35.29h458.839
		c19.516,0,35.388,15.809,35.388,35.245V572.601L588.462,572.601z"/>
	<path fill="#112A47" d="M129.462,390.115c0-16.223-13.195-29.423-29.423-29.423s-29.423,13.2-29.423,29.423
		c0,16.223,13.195,29.423,29.423,29.423S129.462,406.338,129.462,390.115z M94.154,390.115c0-3.246,2.643-5.885,5.885-5.885
		s5.885,2.638,5.885,5.885c0,3.246-2.643,5.885-5.885,5.885C96.798,396,94.154,393.362,94.154,390.115z"/>
	<rect x="411.923" y="549" fill="#112A47" width="129.462" height="23.538"/>
</g>
</svg>
