<?xml version="1.0" encoding="utf-8"?>
<!-- Generator: Adobe Illustrator 17.0.0, SVG Export Plug-In . SVG Version: 6.00 Build 0)  -->
<!DOCTYPE svg PUBLIC "-//W3C//DTD SVG 1.1//EN" "http://www.w3.org/Graphics/SVG/1.1/DTD/svg11.dtd">
<svg version="1.1" id="Layer_1" xmlns="http://www.w3.org/2000/svg" xmlns:xlink="http://www.w3.org/1999/xlink" x="0px" y="0px"
	 width="5203.472px" height="6388px" viewBox="57 -1843 5203.472 6388" enable-background="new 57 -1843 5203.472 6388"
	 xml:space="preserve">
<g>
	<g>
		<path fill="#E65F58" d="M1191.311,2816.583L173.919,3833.975l629.915,629.948l1017.421-1017.421
			c-70.407-111.697-55.244-259.746,39.955-354.913l-314.958-314.958C1451.025,2871.827,1302.975,2887.018,1191.311,2816.583z
			 M507.519,3725.384l633.769-633.798l44.989,44.989l-633.769,633.798L507.519,3725.384z M732.466,3950.364l-44.989-44.989
			l431.314-431.347l44.989,44.989L732.466,3950.364z M912.454,4130.323l-44.989-44.989l543.788-543.82l44.989,44.989
			L912.454,4130.323z M1651.022,3114.078c0,33.989-13.234,65.93-37.285,89.978c-24.824,24.824-57.417,37.224-89.978,37.224
			c-32.593,0-65.186-12.396-90.01-37.224c-49.587-49.648-49.587-130.372,0-179.959c49.649-49.62,130.339-49.681,179.988,0
			C1637.788,3048.119,1651.022,3080.057,1651.022,3114.078z"/>
		<g>
			<path fill="#314E55" d="M1924.083,3041.502l-366.281-366.284c-6.526-6.525-15.467-9.661-24.659-9.348
				c-9.192,0.563-17.694,5.021-23.373,12.266c-5.741,7.343-11.986,14.464-18.697,21.208
				c-80.097,80.064-207.689,88.032-296.917,18.668c-12.768-9.944-30.967-8.88-42.448,2.634L82.634,3789.719
				c-12.55,12.55-12.55,32.878,0,45.427l681.488,681.52c6.024,6.024,14.181,9.414,22.716,9.414c8.535,0,16.692-3.39,22.716-9.414
				l1069.103-1069.103c11.452-11.452,12.582-29.648,2.634-42.448c-69.397-89.195-61.396-216.82,18.668-296.884
				c6.714-6.714,13.774-12.957,21.084-18.635c7.31-5.646,11.798-14.148,12.393-23.373
				C1933.999,3057.031,1930.609,3048.027,1924.083,3041.502z M1814.182,3421.178L786.837,4448.524l-636.06-636.089
				l1027.316-1027.316c112.757,71.123,262.247,55.783,358.407-40.344l318.03,318.03
				C1758.403,3158.899,1743.092,3308.392,1814.182,3421.178z"/>
			<path fill="#314E55" d="M1422.897,2994.661c-50.071,50.071-50.071,131.578,0,181.714c25.066,25.066,57.977,37.587,90.888,37.587
				c32.878,0,65.789-12.517,90.855-37.587c24.282-24.282,37.649-56.535,37.649-90.855c0-34.353-13.363-66.606-37.649-90.855
				C1554.507,2944.495,1473.033,2944.557,1422.897,2994.661z M1578.037,3085.516c0,17.16-6.682,33.285-18.824,45.427
				c-25.037,25.037-65.789,25.037-90.888,0c-25.037-25.066-25.037-65.822,0-90.855c25.037-25.066,65.851-25.037,90.888,0
				C1571.355,3052.231,1578.037,3068.356,1578.037,3085.516z"/>
			
				<rect x="377.771" y="3373.352" transform="matrix(0.7071 -0.7071 0.7071 0.7071 -2164.8445 1584.5507)" fill="#314E55" width="905.056" height="64.244"/>
			
				<rect x="601.87" y="3657.388" transform="matrix(0.7071 -0.7071 0.7071 0.7071 -2342.3938 1723.9817)" fill="#314E55" width="615.925" height="64.244"/>
			
				<rect x="760.109" y="3782.284" transform="matrix(0.7071 -0.7071 0.7071 0.7071 -2360.8381 1929.2451)" fill="#314E55" width="776.554" height="64.244"/>
		</g>
		<path fill="#E65F58" d="M1187.226,585.334L173.551,1599.009l627.614,627.646l1013.704-1013.704
			c-70.15-111.288-55.042-258.797,39.809-353.616L1540.87,545.529C1445.991,640.376,1298.482,655.512,1187.226,585.334z
			 M505.932,1490.814l631.454-631.482l44.824,44.824l-631.454,631.482L505.932,1490.814z M730.058,1714.972l-44.824-44.824
			l429.738-429.771l44.824,44.824L730.058,1714.972z M909.388,1894.274l-44.824-44.824l541.801-541.833l44.824,44.824
			L909.388,1894.274z M1645.257,881.742c0,33.865-13.186,65.69-37.149,89.649c-24.734,24.734-57.207,37.088-89.649,37.088
			c-32.474,0-64.948-12.351-89.681-37.088c-49.406-49.467-49.406-129.895,0-179.301c49.467-49.438,129.863-49.499,179.33,0
			C1632.072,816.024,1645.257,847.845,1645.257,881.742z"/>
		<g>
			<path fill="#314E55" d="M1917.321,809.431l-364.942-364.946c-6.502-6.502-15.411-9.626-24.569-9.314
				c-9.159,0.561-17.63,5.003-23.288,12.221c-5.72,7.316-11.943,14.411-18.629,21.13c-79.804,79.772-206.93,87.711-295.832,18.6
				c-12.721-9.908-30.854-8.847-42.293,2.625L82.599,1554.915c-12.504,12.504-12.504,32.758,0,45.262l678.998,679.03
				c6.002,6.002,14.129,9.38,22.633,9.38s16.631-3.377,22.633-9.38L1872.059,1214.01c11.411-11.41,12.536-29.54,2.625-42.293
				c-69.143-88.869-61.172-216.027,18.6-295.799c6.69-6.69,13.724-12.909,21.007-18.567c7.284-5.626,11.754-14.096,12.348-23.288
				C1927.2,824.903,1923.823,815.933,1917.321,809.431z M1807.821,1187.721L784.23,2211.312l-633.736-633.765L1174.056,553.985
				c112.345,70.863,261.289,55.579,357.098-40.197l316.868,316.868C1752.246,926.399,1736.991,1075.347,1807.821,1187.721z"/>
			<path fill="#314E55" d="M1417.965,762.761c-49.888,49.888-49.888,131.097,0,181.05c24.975,24.975,57.765,37.45,90.556,37.45
				c32.758,0,65.548-12.471,90.523-37.45c24.193-24.193,37.511-56.328,37.511-90.523c0-34.228-13.315-66.363-37.511-90.523
				C1549.095,712.779,1467.919,712.84,1417.965,762.761z M1572.539,853.285c0,17.098-6.657,33.163-18.756,45.262
				c-24.946,24.946-65.548,24.946-90.556,0c-24.946-24.975-24.946-65.581,0-90.523c24.946-24.975,65.61-24.946,90.556,0
				C1565.881,820.121,1572.539,836.187,1572.539,853.285z"/>
			
				<rect x="376.659" y="1140.068" transform="matrix(0.7071 -0.7071 0.7071 0.7071 -586.4019 928.4468)" fill="#314E55" width="901.75" height="64.009"/>
			
				<rect x="599.939" y="1423.067" transform="matrix(0.7071 -0.7071 0.7071 0.7071 -763.3027 1067.3685)" fill="#314E55" width="613.675" height="64.009"/>
			
				<rect x="757.599" y="1547.507" transform="matrix(0.7071 -0.7071 0.7071 0.7071 -781.6797 1271.882)" fill="#314E55" width="773.716" height="64.009"/>
		</g>
		<path fill="#E65F58" d="M1192.555-1676.097L174.031-657.572L804.647-26.923l1018.553-1018.554
			c-70.485-111.821-55.305-260.035,39.999-355.308l-315.308-315.308C1452.558-1620.792,1304.344-1605.583,1192.555-1676.097z
			 M508.002-766.284l634.475-634.503l45.039,45.039L553.041-721.246L508.002-766.284z M733.2-541.054l-45.039-45.039
			l431.794-431.827l45.039,45.039L733.2-541.054z M913.388-360.895l-45.039-45.039l544.393-544.426l45.039,45.039L913.388-360.895z
			 M1652.779-1378.27c0,34.027-13.249,66.004-37.327,90.078c-24.852,24.852-57.481,37.265-90.078,37.265
			c-32.629,0-65.258-12.41-90.11-37.265c-49.643-49.704-49.643-130.517,0-180.159c49.704-49.675,130.484-49.736,180.188,0
			C1639.53-1444.303,1652.779-1412.33,1652.779-1378.27z"/>
		<g>
			<path fill="#314E55" d="M1926.144-1450.928l-366.688-366.692c-6.533-6.533-15.484-9.672-24.687-9.359
				c-9.203,0.564-17.714,5.027-23.399,12.28c-5.747,7.351-12,14.48-18.718,21.231c-80.186,80.153-207.92,88.13-297.247,18.689
				c-12.782-9.956-31.001-8.89-42.496,2.637L82.644-701.877c-12.564,12.564-12.564,32.915,0,45.478L764.89,25.88
				c6.031,6.031,14.197,9.424,22.741,9.424c8.544,0,16.71-3.394,22.741-9.424l1070.293-1070.293
				c11.465-11.465,12.596-29.681,2.637-42.496c-69.474-89.294-61.464-217.061,18.689-297.214
				c6.722-6.722,13.789-12.971,21.108-18.656c7.318-5.653,11.811-14.164,12.407-23.399
				C1936.07-1435.381,1932.676-1444.395,1926.144-1450.928z M1816.12-1070.828L787.631-42.339L150.863-679.136l1028.46-1028.46
				c112.883,71.202,262.539,55.845,358.806-40.39l318.384,318.384C1760.279-1333.4,1744.951-1183.74,1816.12-1070.828z"/>
			<path fill="#314E55" d="M1424.399-1497.821c-50.127,50.127-50.127,131.724,0,181.917c25.094,25.094,58.042,37.629,90.989,37.629
				c32.915,0,65.862-12.531,90.956-37.629c24.309-24.309,37.691-56.598,37.691-90.956c0-34.391-13.378-66.681-37.691-90.956
				C1556.156-1548.042,1474.591-1547.98,1424.399-1497.821z M1579.712-1406.864c0,17.179-6.689,33.322-18.845,45.478
				c-25.065,25.065-65.862,25.065-90.989,0c-25.065-25.094-25.065-65.895,0-90.957c25.065-25.094,65.924-25.065,90.989,0
				C1573.023-1440.187,1579.712-1424.044,1579.712-1406.864z"/>
			
				<rect x="378.11" y="-1118.708" transform="matrix(0.7071 -0.7071 0.7071 0.7071 1011.7433 269.463)" fill="#314E55" width="906.064" height="64.316"/>
			
				<rect x="602.459" y="-834.356" transform="matrix(0.7071 -0.7071 0.7071 0.7071 833.9962 409.0494)" fill="#314E55" width="616.611" height="64.316"/>
			
				<rect x="760.873" y="-709.321" transform="matrix(0.7071 -0.7071 0.7071 0.7071 815.5313 614.5413)" fill="#314E55" width="777.418" height="64.316"/>
		</g>
		<rect x="2530.81" y="-1042.029" fill="#112A47" width="2729.662" height="290.176"/>
		<rect x="2530.81" y="1221.221" fill="#112A47" width="2729.662" height="281.293"/>
		<rect x="2530.81" y="3452.357" fill="#112A47" width="2729.662" height="287.215"/>
	</g>
</g>
</svg>
