<?xml version="1.0" encoding="utf-8"?>
<!-- Generator: Adobe Illustrator 17.0.0, SVG Export Plug-In . SVG Version: 6.00 Build 0)  -->
<!DOCTYPE svg PUBLIC "-//W3C//DTD SVG 1.1//EN" "http://www.w3.org/Graphics/SVG/1.1/DTD/svg11.dtd">
<svg version="1.1" id="Layer_1" xmlns="http://www.w3.org/2000/svg" xmlns:xlink="http://www.w3.org/1999/xlink" x="0px" y="0px"
	 width="701px" height="800px" viewBox="288.5 0 701 800" enable-background="new 288.5 0 701 800" xml:space="preserve">
<g>
	<path fill="#F28544" d="M602.194,165.295c1.425-0.283,2.847-0.578,4.277-0.83c3.737-0.639,7.48-1.123,11.23-1.55
		c2.011-0.233,4.012-0.527,6.033-0.698c3.731-0.308,7.466-0.417,11.203-0.512c1.692-0.047,3.366-0.233,5.064-0.233
		c1.692,0,3.361,0.188,5.048,0.233c3.744,0.095,7.486,0.206,11.225,0.514c2.009,0.17,4,0.461,6,0.694
		c3.769,0.427,7.53,0.914,11.284,1.558c1.402,0.245,2.797,0.536,4.194,0.813c4.744,0.917,9.467,2.005,14.175,3.269
		c0.333,0.091,0.666,0.18,0.998,0.272c2.475,0.678,4.964,1.258,7.427,2.031l27.967-125.852
		c-31.236,18.019-78.662,42.689-104.142,42.689c-23.172,0-49.491-15.825-70.047-31.673l25.516,114.844
		c2.439-0.767,4.902-1.341,7.353-2.013c0.389-0.109,0.778-0.212,1.169-0.32C592.823,167.281,597.498,166.205,602.194,165.295z"/>
</g>
<g>
	<path fill="#082947" d="M760.405,200.761c3.886,0.091,7.994,0.305,11.711,0.305c127.056,0,156.952-51.513,160.248-58.098
		c3.563-7.131,0.703-15.653-6.344-19.38c-7.053-3.727-15.861-1.003-19.761,5.956c-0.291,0.512-28.675,48.245-159.977,41.406
		c17.416-20.5,49.58-51.225,86.152-51.225c8.106,0,14.678-6.572,14.678-14.678s-6.572-14.678-14.678-14.678
		c-38.855,0-72.064,24.152-94.433,46.359l26.414-118.856c1.291-5.798-1.047-11.805-5.912-15.209
		c-4.873-3.405-11.309-3.541-16.32-0.344c-33.888,21.659-95.892,56.02-118.011,56.02c-23.567,0-63.811-32.984-83.636-53.777
		c-4.552-4.781-11.727-5.934-17.539-2.817c-5.813,3.097-8.852,9.697-7.419,16.127l36.487,164.219
		c-147.744,70.494-257.017,314.186-257.017,603.231c0,8.106,6.572,14.678,14.678,14.678h660.547c8.106,0,14.678-6.572,14.678-14.678
		C984.952,517.895,891.409,289.306,760.405,200.761z M579.644,170.861L554.128,56.017c20.556,15.847,46.875,31.673,70.047,31.673
		c25.48,0,72.906-24.67,104.142-42.689L700.35,170.853c-2.462-0.773-4.952-1.355-7.427-2.031c-0.333-0.094-0.666-0.181-0.998-0.272
		c-4.708-1.262-9.43-2.352-14.175-3.269c-1.397-0.277-2.792-0.566-4.194-0.812c-3.755-0.644-7.517-1.131-11.284-1.558
		c-2-0.233-3.991-0.523-6-0.694c-3.739-0.308-7.481-0.419-11.225-0.514c-1.688-0.045-3.355-0.233-5.048-0.233
		c-1.698,0-3.372,0.186-5.064,0.233c-3.737,0.095-7.472,0.205-11.203,0.513c-2.02,0.172-4.022,0.466-6.033,0.698
		c-3.75,0.427-7.492,0.909-11.23,1.55c-1.431,0.252-2.852,0.547-4.277,0.83c-4.695,0.909-9.369,1.986-14.028,3.233
		c-0.389,0.108-0.78,0.211-1.169,0.32C584.545,169.52,582.083,170.094,579.644,170.861z M324.498,770.642
		c3.603-278.791,109.619-510.491,249.7-566.694c0.075-0.028,0.158-0.016,0.234-0.047c42.875-17.345,88.266-17.338,131.127-0.008
		c0.063,0.025,0.133,0.008,0.197,0.033c140.105,56.175,246.141,287.894,249.745,566.714H324.498V770.642z"/>
	<g>
		<path fill="#008DE2" d="M579.594,386.797h140.918v0.293c-8.302,12.794-12.989,19.629-14.063,20.508h-37.646
			c5.175,6.057,8.69,13.429,10.547,22.119h40.137c0.487,0.099,0.732,0.293,0.732,0.586c-8.986,13.477-13.575,20.215-13.77,20.215
			h-26.074c-0.586,6.936-3.907,15.285-9.961,25.049c-8.009,9.865-15.674,16.26-22.998,19.189
			c-13.673,6.544-26.759,9.814-39.258,9.814v0.293c0,0.978,3.076,5.031,9.229,12.158l69.58,83.936v3.955
			c0,0.392-0.245,0.586-0.732,0.586h-30.615c-55.078-64.16-82.617-96.387-82.617-96.68v-19.482l0.293-0.732
			c4.882,0.685,10.595,1.025,17.139,1.025c30.858,0,50.047-10.009,57.568-30.029c1.172-2.93,1.758-5.955,1.758-9.082h-83.789
			c-0.389,0-0.586-0.194-0.586-0.586c9.276-13.477,14.012-20.215,14.209-20.215h66.504v-0.293
			c-3.809-7.713-11.183-13.719-22.119-18.018c-7.814-2.538-14.845-3.809-21.094-3.809h-37.207v-0.732
			C574.661,393.487,579.301,386.797,579.594,386.797z"/>
	</g>
</g>
</svg>
