<?xml version="1.0" encoding="utf-8"?>
<!-- Generator: Adobe Illustrator 17.0.0, SVG Export Plug-In . SVG Version: 6.00 Build 0)  -->
<!DOCTYPE svg PUBLIC "-//W3C//DTD SVG 1.1//EN" "http://www.w3.org/Graphics/SVG/1.1/DTD/svg11.dtd">
<svg version="1.1" id="Layer_1" xmlns="http://www.w3.org/2000/svg" xmlns:xlink="http://www.w3.org/1999/xlink" x="0px" y="0px"
	 width="612px" height="404.667px" viewBox="0 193.5 612 404.667" enable-background="new 0 193.5 612 404.667"
	 xml:space="preserve">
<g>
	<path fill="#E4AD40" d="M168.827,311.586v-21.103H105.43c-5.868,0-10.464,4.632-10.464,10.546v31.66h73.862v-21.103H168.827z"/>
	<path fill="#E4AD40" d="M232.138,311.586v-10.557c0-5.816-4.694-10.546-10.464-10.546h-31.743v21.103H232.138z"/>
	<path fill="#E4AD40" d="M189.932,374.897h31.743c5.868,0,10.464-4.632,10.464-10.546v-31.66h-42.206V374.897z"/>
	<path fill="#E4AD40" d="M105.43,374.897h63.398v-21.103H94.965v10.557C94.965,370.167,99.659,374.897,105.43,374.897z"/>
</g>
<path fill="#73C9C9" d="M559.19,216.621H52.81c-17.481,0-31.707,14.152-31.707,31.551v295.655c0,17.399,14.225,31.553,31.707,31.553
	h506.38c17.481,0,31.707-14.152,31.707-31.551V248.172C590.897,230.773,576.671,216.621,559.19,216.621z M73.862,353.794V332.69
	v-31.66c0-17.45,14.163-31.649,31.567-31.649h63.398h21.103h31.743c17.404,0,31.567,14.199,31.567,31.649v10.557v21.103v31.66
	c0,17.45-14.163,31.649-31.567,31.649H189.93h-21.103H105.43c-17.404,0-31.567-14.199-31.567-31.649v-10.557H73.862z
	 M295.448,480.414H73.862v-21.103h221.586V480.414z M538.138,480.414H316.552v-21.103h221.586V480.414z"/>
<g>
	<path fill="#112A47" d="M559.19,195.517H52.81C23.69,195.517,0,219.14,0,248.172v295.655c0,29.033,23.69,52.656,52.81,52.656
		h506.38c29.12,0,52.81-23.623,52.81-52.656V248.172C612,219.14,588.31,195.517,559.19,195.517z M590.897,543.827
		c0,17.399-14.225,31.552-31.707,31.552H52.81c-17.481,0-31.707-14.153-31.707-31.552V248.172c0-17.399,14.225-31.551,31.707-31.551
		h506.38c17.481,0,31.707,14.152,31.707,31.551V543.827z"/>
	<rect x="73.862" y="459.311" fill="#112A47" width="221.586" height="21.103"/>
	<rect x="316.552" y="459.311" fill="#112A47" width="221.586" height="21.103"/>
	<path fill="#112A47" d="M105.43,396h63.398h21.103h31.743c17.404,0,31.567-14.199,31.567-31.649v-31.66v-21.103V301.03
		c0-17.45-14.163-31.649-31.567-31.649h-31.743h-21.103H105.43c-17.404,0-31.567,14.199-31.567,31.649v31.66v21.103v10.557
		C73.862,381.801,88.025,396,105.43,396z M232.138,364.351c0,5.914-4.596,10.546-10.464,10.546h-31.743V332.69h42.206V364.351z
		 M221.674,290.483c5.771,0,10.464,4.73,10.464,10.546v10.557h-42.206v-21.103H221.674z M94.965,301.029
		c0-5.914,4.596-10.546,10.464-10.546h63.398v21.103v21.103H94.965V301.029z M168.827,353.794v21.103H105.43
		c-5.771,0-10.464-4.73-10.464-10.546v-10.557H168.827z"/>
</g>
</svg>
