<?xml version="1.0" encoding="utf-8"?>
<!-- Generator: Adobe Illustrator 17.0.0, SVG Export Plug-In . SVG Version: 6.00 Build 0)  -->
<!DOCTYPE svg PUBLIC "-//W3C//DTD SVG 1.1//EN" "http://www.w3.org/Graphics/SVG/1.1/DTD/svg11.dtd">
<svg version="1.1" id="Layer_1" xmlns="http://www.w3.org/2000/svg" xmlns:xlink="http://www.w3.org/1999/xlink" x="0px" y="0px"
	 width="192.333px" height="192.333px" viewBox="0 0 192.333 192.333" enable-background="new 0 0 192.333 192.333"
	 xml:space="preserve">
<g>
	<defs>
		<circle id="SVGID_1_" cx="96.42" cy="96.397" r="93.666"/>
	</defs>
	<clipPath id="SVGID_2_">
		<use xlink:href="#SVGID_1_"  overflow="visible"/>
	</clipPath>
	<circle clip-path="url(#SVGID_2_)" fill="#AD45AB" cx="96.42" cy="96.397" r="93.666"/>
	<g clip-path="url(#SVGID_2_)">
		<g>
			<path fill="#5D9A4C" d="M85.427,212.333c-0.798-5.926-1.41-11.801-1.676-17.601H68.837c0.4,5.918,2.326,11.776,3.707,17.601
				H85.427z"/>
		</g>
		<g>
			<path fill="#5D9A4C" d="M127.348,212.333c1.381-5.825,3.308-11.683,3.708-17.601h-14.915c-0.846,5.73-1.823,11.616-2.833,17.601
				H127.348z"/>
		</g>
		<g>
			<g>
				<path fill="#7AA94D" d="M72.462,56.571c-3.322-3.285-8.212-5.09-12.417-7.148c-6.369-3.116-12.601-5.621-17.506-10.323
					c-5.119,7.871-3.062,23.236-0.144,31.407c1.616,4.526,9.384,19.692,15.662,19.101l21.525-26.031
					C76.166,63.505,74.753,58.834,72.462,56.571z"/>
				<path fill="#F4E13A" d="M59.313,80.347c0,0-13.811-7.549-11.049-27.532c0,0,22.098,4.885,22.558,17.318L59.313,80.347z"/>
			</g>
			<g>
				<path fill="#7AA94D" d="M119.959,56.571c3.322-3.285,8.212-5.09,12.417-7.148c6.369-3.116,12.601-5.621,17.506-10.323
					c5.118,7.871,3.062,23.236,0.144,31.407c-1.616,4.526-9.385,19.692-15.662,19.101L112.84,63.577
					C116.255,63.505,117.669,58.834,119.959,56.571z"/>
				<path fill="#F4E13A" d="M133.11,80.347c0,0,13.811-7.549,11.049-27.532c0,0-22.098,4.885-22.559,17.318L133.11,80.347z"/>
			</g>
		</g>
		<path fill="#95C14C" d="M146.715,126.741c1.404,0.799,3.169,1.299,4.754,1.336c-1.614-0.037-7.984-15.891-8.649-18.097
			c-2.725-9.051-2.236-18.58-3.54-27.855c-0.52-3.699-1.658-7.025-3.284-9.987c0.671-1.571,1.676-2.974,3.095-4.055
			c-1.569-1.675-4.175-2.318-6.503-2.09c0.671-0.827,1.697-3.007,2.375-3.83c-2.415-0.375-4.964-0.098-7.466,0.321
			c-0.813-0.609-1.654-1.188-2.525-1.731c-1.168-0.728-2.39-1.394-3.649-2.013c-0.315-3.733-1.098-6.445-4.344-10.055
			c-3.077-3.422-9.874-10.949-8.957-1.303c-1.169-3.658-3.901-7.164-7.558-8.907c-1.491,1.868-2.439,4.416-2.479,6.93
			c-0.063-5.321-4.869-9.8-7.398-14.214c-1.192,4.146-1.648,8.243-3.604,12.263c-1.523,3.131-4.636,5.68-5.503,8.934
			c-0.833-2.116-1.214-4.726-0.99-7.18c-2.101,4.689-7.321,8.573-7.52,13.737c-1.11,0.561-2.19,1.161-3.228,1.808
			c-0.371,0.231-0.732,0.472-1.093,0.715c-4.03,0.009-8.297,0.454-12.162,0.708c1.07,1.196,1.761,2.302,3.3,2.925
			c-1.741-0.454-3.47-1.114-5.181-1.57c0.171,2.87,1.638,5.113,3.78,6.956c-2.325,0.201-4.821-1.067-6.102-2.352
			c0.774,3.31,2.979,4.752,5.436,6.007c-1.095,2.438-1.881,5.097-2.287,7.983c-1.442,10.261-0.769,20.624-2.838,30.838
			c-0.819,4.04-2.005,8-3.253,11.942c-1.904,3.367-3.196,7.277-5.42,10.62c-2.821,4.239-6.989,7.257-9.835,11.175
			c1.618,0.894,3.778,1.055,5.778,1.078c-3.923,7.111-3.288,20.897-0.976,27.505c0.587-2.033,1.663-3.989,3.429-5.028
			c-0.162,8.784,6.813,19.037,13.665,24.289c-0.521-1.512-0.649-2.946-0.586-4.665c2.863,5.798,12.456,12.568,18.866,12.778
			c-0.039-0.001,0.005-2.538,0.129-2.728c1.835-2.791,14.052,2.38,16.424,2.691c2.958,0.388,20.025,2.63,20.558-2.489
			c-0.163,1.571-0.713,3.267-1.661,4.564c6.808-3.537,14.363-5.1,20.234-10.412c-0.683,2.156-1.405,4.334-1.849,6.392
			c7.802-1.064,11.703-12.419,17.354-16.931c-0.344,1.974-0.689,4.359-0.31,6.442c7.753-5.578,8.977-18.158,9.496-26.84
			c1.175,1.373,2.186,4.125,2.414,4.938C157.064,155.941,157.578,135.19,146.715,126.741z"/>
		<g>
			<g>
				<g>
					<circle fill="#81AE50" cx="79.858" cy="101.436" r="13.516"/>
					<circle fill="#FFFFFF" cx="79.858" cy="101.436" r="10.464"/>
					<circle fill="#DD9144" cx="79.858" cy="101.436" r="7.194"/>
					<circle fill="#1B2822" cx="79.858" cy="101.436" r="4.796"/>
					<circle fill="#FFFFFF" cx="83.854" cy="98.167" r="3.27"/>
				</g>
				<g>
					<circle fill="#81AE50" cx="110.214" cy="102.122" r="10.763"/>
					<circle fill="#FFFFFF" cx="110.214" cy="102.122" r="8.332"/>
					<circle fill="#DD9144" cx="110.214" cy="102.122" r="5.728"/>
					<circle fill="#1B2822" cx="110.214" cy="102.122" r="3.819"/>
					<circle fill="#FFFFFF" cx="113.396" cy="99.518" r="2.604"/>
				</g>
				<path fill="#3E6B43" d="M88.335,94.566c-4.06,1.524-9.66-0.494-13.375-1.368c-1.63-0.384-14.188-7.085-13.844-7.239
					c3.528-1.581,8.253,0.588,11.939,0.677c-2.219-1.015-3.095-3.377-3.468-5.757c3.001,0.372,5.787,2.547,8.697,3.654
					c-1-1.776-1.994-3.458-2.452-5.438c1.68-0.357,9.668,4.372,11.928,5.483c4.074,2.006,6.446,5.813,2.324,9.017
					C89.547,94.014,88.959,94.331,88.335,94.566z"/>
			</g>
			<path fill="#3E6B43" d="M102.806,98.32c4.06,1.524,9.66-0.493,13.375-1.368c1.63-0.383,14.188-7.085,13.844-7.239
				c-3.528-1.581-8.253,0.588-11.939,0.677c2.219-1.016,3.096-3.377,3.468-5.756c-3.001,0.371-5.787,2.547-8.697,3.653
				c1-1.776,1.994-3.459,2.453-5.438c-1.681-0.357-9.669,4.372-11.929,5.482c-4.074,2.007-6.446,5.814-2.324,9.017
				C101.594,97.768,102.182,98.086,102.806,98.32z"/>
		</g>
		<g>
			<g>
				<path fill="#FFFFFF" d="M75.861,123.397c0,0-7.798,7.799,2.6,11.915c10.644,4.213,10.398-6.715,10.398-6.715L75.861,123.397z"/>
				<path fill="#FFFFFF" d="M115.021,123.397c0,0,7.799,7.799-2.599,11.915c-10.643,4.213-10.398-6.715-10.398-6.715
					L115.021,123.397z"/>
			</g>
			<g>
				<path fill="#3E6B43" d="M95.459,129.916c-20.605,0-28.992-14.658-29.344-15.292c-0.702-1.262-0.248-2.853,1.014-3.554
					c1.259-0.701,2.845-0.249,3.548,1.006l0,0c0.301,0.531,7.588,13.012,25.682,12.604c17.919-0.415,22.339-14.27,22.381-14.41
					c0.42-1.381,1.881-2.159,3.261-1.739c1.381,0.419,2.159,1.879,1.74,3.26c-0.055,0.175-5.604,17.612-27.261,18.113
					C96.139,129.913,95.797,129.916,95.459,129.916z"/>
			</g>
		</g>
		<g>
			
				<ellipse transform="matrix(0.9254 0.379 -0.379 0.9254 48.1701 -14.4456)" opacity="0.3" fill="#3E6B43" cx="60.779" cy="115.138" rx="4.756" ry="6.258"/>
			<circle opacity="0.3" fill="#3E6B43" cx="143.877" cy="138.665" r="6.258"/>
			<circle opacity="0.3" fill="#3E6B43" cx="84.307" cy="72.086" r="4.256"/>
			<circle opacity="0.3" fill="#3E6B43" cx="123.87" cy="147.176" r="3.254"/>
			<circle opacity="0.3" fill="#3E6B43" cx="83.823" cy="161.693" r="3.254"/>
			<circle opacity="0.3" fill="#3E6B43" cx="46.778" cy="142.17" r="3.254"/>
			
				<ellipse transform="matrix(0.9231 -0.3846 0.3846 0.9231 -32.2152 58.1917)" opacity="0.3" fill="#3E6B43" cx="129.367" cy="109.631" rx="6.014" ry="8.76"/>
			
				<ellipse transform="matrix(0.9123 0.4096 -0.4096 0.9123 63.2564 -13.992)" opacity="0.3" fill="#3E6B43" cx="64.291" cy="140.668" rx="7.516" ry="8.761"/>
			
				<ellipse transform="matrix(0.9131 -0.4077 0.4077 0.9131 -15.5033 51.4035)" opacity="0.3" fill="#3E6B43" cx="112.848" cy="62.075" rx="3.511" ry="5.257"/>
			<circle opacity="0.3" fill="#3E6B43" cx="98.073" cy="144.172" r="5.257"/>
		</g>
	</g>
</g>
</svg>
