<?xml version="1.0" encoding="utf-8"?>
<!-- Generator: Adobe Illustrator 17.0.0, SVG Export Plug-In . SVG Version: 6.00 Build 0)  -->
<!DOCTYPE svg PUBLIC "-//W3C//DTD SVG 1.1//EN" "http://www.w3.org/Graphics/SVG/1.1/DTD/svg11.dtd">
<svg version="1.1" id="Layer_1" xmlns="http://www.w3.org/2000/svg" xmlns:xlink="http://www.w3.org/1999/xlink" x="0px" y="0px"
	 width="612px" height="487px" viewBox="0 150.5 612 487" enable-background="new 0 150.5 612 487" xml:space="preserve">
<g>
	<g>
		<path fill="#082947" d="M581.901,401.034h-61.622l-17.236-112.065c11.106,7.373,24.419,11.678,38.727,11.678
			c38.727,0,70.23-31.523,70.23-70.239s-31.503-70.23-70.23-70.23s-70.23,31.503-70.23,70.23c0,8.138,1.464,15.922,4.024,23.197
			l-38.385-32.867c-7.806-6.682-17.748-10.323-28.013-10.323H270.884c-16.594,0-30.099,13.503-30.099,30.099
			s13.503,30.099,30.099,30.099h124.216l-104.411,81.998c-18.961,14.899-29.838,37.261-29.838,61.38
			c0,26.688,13.405,51.227,35.868,65.674l93.104,59.846l-78.486,32.706c-7.885,3.281-14.085,9.762-17.016,17.769
			c-2.93,8.026-2.378,16.986,1.535,24.59c5.417,10.513,16.153,16.635,27.319,16.635c4.144,0,8.347-0.843,12.35-2.618l108.193-47.757
			c16.896-7.866,27.82-25.012,27.82-43.673c0-12.701-5.147-25.123-14.126-34.08l-61.491-61.5l57.969-50.736l4.475,35.786
			c2.457,19.715,19.282,34.603,39.138,34.603h84.395c16.594,0,30.099-13.503,30.099-30.099
			C612,414.537,598.497,401.034,581.901,401.034z M541.77,180.232c27.659,0,50.165,22.503,50.165,50.165
			s-22.503,50.165-50.165,50.165c-27.659,0-50.165-22.503-50.165-50.165S514.11,180.232,541.77,180.232z M581.901,441.165h-84.395
			c-9.751,0-18.019-7.335-19.233-17.016l-9.161-73.259l-102.556,89.714l76.671,76.671c5.248,5.227,8.247,12.472,8.247,19.894
			c0,10.886-6.38,20.898-16.052,25.412l-108.014,47.665c-5.137,2.297-11.158,0.15-13.726-4.835c-1.374-2.68-1.556-5.689-0.531-8.518
			c1.034-2.808,3.121-4.996,5.89-6.149l85.268-35.525c5.588-2.318,9.392-7.504,9.923-13.533c0.531-6.029-2.297-11.808-7.384-15.07
			l-99.283-63.831c-16.684-10.744-26.647-28.984-26.647-48.819c0-17.919,8.086-34.553,22.172-45.63l123.343-96.867l-20.969-20.928
			H270.884c-5.528,0-10.034-4.495-10.034-10.034c0-5.539,4.505-10.034,10.034-10.034h138.282c5.477,0,10.785,1.926,14.948,5.488
			l58.14,49.863l20.808,135.273h78.837c5.529,0,10.034,4.495,10.034,10.034S587.429,441.165,581.901,441.165z"/>
		<path fill="#082947" d="M147.663,606.674c-5.036,5.73-13.514,6.712-19.704,2.297c-3.39-2.419-5.558-6.029-6.089-10.154
			c-0.531-4.133,0.642-8.157,3.311-11.357l133.355-160.023l-15.41-12.853L109.76,574.616c-6.19,7.425-9.03,17.187-7.795,26.778
			c1.235,9.591,6.462,18.31,14.336,23.929c6.141,4.375,13.212,6.5,20.245,6.5c9.713,0,19.334-4.073,26.206-11.919l115.678-132.071
			l-15.1-13.223L147.663,606.674z"/>
		<rect x="80.262" y="290.673" fill="#082947" width="220.721" height="20.066"/>
		<rect x="20.066" y="290.673" fill="#082947" width="40.131" height="20.066"/>
		<rect x="100.328" y="330.804" fill="#082947" width="150.493" height="20.066"/>
		<rect x="40.131" y="330.804" fill="#082947" width="40.131" height="20.066"/>
		<rect x="110.362" y="370.935" fill="#082947" width="130.427" height="20.066"/>
		<rect x="60.197" y="370.935" fill="#082947" width="30.099" height="20.066"/>
		<rect x="60.197" y="250.541" fill="#082947" width="170.558" height="20.066"/>
		<rect y="250.541" fill="#082947" width="40.131" height="20.066"/>
		<rect x="20.066" y="270.607" fill="#F9BA48" width="210.689" height="20.066"/>
		<rect x="40.131" y="310.738" fill="#F9BA48" width="260.852" height="20.066"/>
		<rect x="60.197" y="350.869" fill="#F9BA48" width="190.624" height="20.066"/>
		<rect x="80.262" y="391" fill="#F9BA48" width="160.524" height="20.066"/>
	</g>
</g>
</svg>
