<?xml version="1.0" encoding="utf-8"?>
<!-- Generator: Adobe Illustrator 17.0.0, SVG Export Plug-In . SVG Version: 6.00 Build 0)  -->
<!DOCTYPE svg PUBLIC "-//W3C//DTD SVG 1.1//EN" "http://www.w3.org/Graphics/SVG/1.1/DTD/svg11.dtd">
<svg version="1.1" id="Layer_1" xmlns="http://www.w3.org/2000/svg" xmlns:xlink="http://www.w3.org/1999/xlink" x="0px" y="0px"
	 width="612px" height="561px" viewBox="0 115.5 612 561" enable-background="new 0 115.5 612 561" xml:space="preserve">
<path fill="#5ECB66" d="M267.538,378.552c64.134,0,116.319-52.179,116.319-116.319s-52.185-116.319-116.319-116.319
	s-116.319,52.179-116.319,116.319S203.403,378.552,267.538,378.552z M193.577,272.524c4.056-4.964,11.382-5.697,16.369-1.624
	l45.551,37.311l52.662-112.934c2.727-5.816,9.644-8.337,15.46-5.623s8.337,9.633,5.623,15.46l-58.99,126.504
	c-1.522,3.255-4.453,5.623-7.951,6.424c-0.863,0.194-1.727,0.289-2.59,0.289c-2.658,0-5.271-0.914-7.373-2.636l-57.137-46.801
	C190.238,284.825,189.499,277.493,193.577,272.524z"/>
<path fill="#F28544" d="M116.322,599.561c-12.825,0-23.264,10.434-23.264,23.264c0,12.831,10.439,23.264,23.264,23.264
	s23.264-10.434,23.264-23.264C139.586,609.993,129.146,599.561,116.322,599.561z"/>
<path fill="#D8D8D8" d="M499.076,273.864h-92.543c-5.943,71.53-65.95,127.952-138.995,127.952s-133.051-56.422-138.995-127.952
	H24.629l20.788,187.129l432.61,44.37L499.076,273.864z"/>
<path fill="#F28544" d="M407.122,599.561c-12.825,0-23.264,10.434-23.264,23.264c0,12.831,10.439,23.264,23.264,23.264
	c12.824,0,23.264-10.434,23.264-23.264C430.387,609.993,419.947,599.561,407.122,599.561z"/>
<g>
	<path fill="#082947" d="M116.322,576.296c-25.661,0-46.528,20.873-46.528,46.528s20.868,46.528,46.528,46.528
		s46.528-20.873,46.528-46.528S141.983,576.296,116.322,576.296z M116.322,646.088c-12.825,0-23.264-10.434-23.264-23.264
		s10.439-23.264,23.264-23.264s23.264,10.434,23.264,23.264S129.146,646.088,116.322,646.088z"/>
	<path fill="#082947" d="M407.122,576.296c-25.661,0-46.528,20.873-46.528,46.528s20.868,46.528,46.528,46.528
		c25.661,0,46.528-20.873,46.528-46.528S432.783,576.296,407.122,576.296z M407.122,646.088c-12.825,0-23.264-10.434-23.264-23.264
		s10.439-23.264,23.264-23.264c12.824,0,23.264,10.434,23.264,23.264S419.947,646.088,407.122,646.088z"/>
	<path fill="#082947" d="M600.368,204.072h-81.64c-5.918,0-10.894,4.448-11.563,10.331l-4.071,36.196h-96.56
		c-5.943-71.53-65.95-127.952-138.995-127.952S134.487,179.07,128.544,250.6H11.634c-3.305,0-6.463,1.408-8.667,3.874
		s-3.26,5.753-2.896,9.043l23.264,209.376c0.613,5.447,4.929,9.73,10.382,10.286l443.197,45.455v13.517H49.711
		c-6.43,0-11.632,5.208-11.632,11.632s5.203,11.632,11.632,11.632h438.835c6.43,0,11.632-5.208,11.632-11.632v-35.094
		l20.722-227.943c0.81-1.372,1.42-2.877,1.61-4.561l6.611-58.846h71.245c6.43,0,11.632-5.208,11.632-11.632
		S606.797,204.072,600.368,204.072z M267.538,145.912c64.134,0,116.319,52.179,116.319,116.319s-52.185,116.319-116.319,116.319
		s-116.319-52.179-116.319-116.319S203.403,145.912,267.538,145.912z M24.629,273.864h103.914
		c5.943,71.53,65.95,127.952,138.995,127.952s133.051-56.422,138.995-127.952h92.543l-21.049,231.499l-432.61-44.37L24.629,273.864z
		"/>
	<path fill="#082947" d="M252.339,335.693c2.101,1.721,4.714,2.636,7.373,2.636c0.863,0,1.727-0.097,2.59-0.289
		c3.499-0.801,6.43-3.169,7.951-6.424l58.99-126.504c2.715-5.827,0.194-12.746-5.623-15.46c-5.816-2.715-12.734-0.194-15.46,5.623
		L255.498,308.21l-45.551-37.309c-4.987-4.072-12.314-3.34-16.369,1.624c-4.078,4.97-3.34,12.302,1.624,16.369L252.339,335.693z"/>
</g>
</svg>
