<?xml version="1.0" encoding="utf-8"?>
<!-- Generator: Adobe Illustrator 17.0.0, SVG Export Plug-In . SVG Version: 6.00 Build 0)  -->
<!DOCTYPE svg PUBLIC "-//W3C//DTD SVG 1.1//EN" "http://www.w3.org/Graphics/SVG/1.1/DTD/svg11.dtd">
<svg version="1.1" id="Layer_1" xmlns="http://www.w3.org/2000/svg" xmlns:xlink="http://www.w3.org/1999/xlink" x="0px" y="0px"
	 width="588px" height="627px" viewBox="11.5 82.5 588 627" enable-background="new 11.5 82.5 588 627" xml:space="preserve">
<path fill="#97DBFF" d="M191.25,606.375h229.5h76.5h76.5c0,42.247-34.253,76.5-76.5,76.5h-382.5
	C156.997,682.875,191.25,648.622,191.25,606.375z"/>
<path fill="#082947" d="M587.271,592.854c-3.557-3.557-8.491-5.604-13.521-5.604h-57.375V147.375
	C516.356,115.685,490.69,90.019,459,90H76.5c-31.69,0.019-57.356,25.685-57.375,57.375v459C19.144,659.198,61.927,702,114.75,702
	h382.5c0,0,0,0,0.019,0c52.823-0.019,95.606-42.802,95.606-95.625C592.875,601.345,590.829,596.411,587.271,592.854z
	 M172.125,606.375c-0.057,31.671-25.704,57.318-57.375,57.375c-31.69-0.057-57.318-25.704-57.375-57.375v-459
	c0.019-10.557,8.568-19.125,19.125-19.125H459c10.557,0,19.106,8.568,19.125,19.125V587.25H420.75h-229.5
	c-5.03,0-9.964,2.046-13.521,5.604C174.171,596.411,172.125,601.345,172.125,606.375z M497.25,663.75H190.81
	c8.434-11.169,14.745-19.125,17.633-38.25H420.75h76.5h53.837C543.169,647.723,522.189,663.712,497.25,663.75z"/>
<g>
	<path fill="#082947" d="M193.159,224.347h164.404v0.342c-9.686,14.927-15.154,22.9-16.406,23.926h-43.921
		c6.038,7.065,10.139,15.667,12.305,25.806h46.826c0.568,0.115,0.854,0.342,0.854,0.684c-10.483,15.723-15.838,23.584-16.064,23.584
		h-30.42c-0.684,8.091-4.558,17.832-11.621,29.224c-9.343,11.509-18.286,18.97-26.831,22.388
		c-15.952,7.634-31.218,11.45-45.801,11.45v0.342c0,1.14,3.589,5.869,10.767,14.185l81.177,97.925v4.614
		c0,0.457-0.286,0.684-0.854,0.684h-35.718c-64.258-74.854-96.387-112.451-96.387-112.793v-22.729l0.342-0.854
		c5.696,0.798,12.361,1.196,19.995,1.196c36.001,0,58.389-11.677,67.163-35.034c1.367-3.418,2.051-6.948,2.051-10.596h-97.754
		c-0.454,0-0.684-0.227-0.684-0.684c10.823-15.723,16.348-23.584,16.577-23.584h77.588v-0.342
		c-4.443-8.999-13.047-16.006-25.806-21.021c-9.116-2.961-17.319-4.443-24.609-4.443h-43.408v-0.854
		C187.405,232.152,192.817,224.347,193.159,224.347z"/>
</g>
</svg>
