<?xml version="1.0" encoding="utf-8"?>
<!-- Generator: Adobe Illustrator 17.0.0, SVG Export Plug-In . SVG Version: 6.00 Build 0)  -->
<!DOCTYPE svg PUBLIC "-//W3C//DTD SVG 1.1//EN" "http://www.w3.org/Graphics/SVG/1.1/DTD/svg11.dtd">
<svg version="1.1" id="Capa_1" xmlns="http://www.w3.org/2000/svg" xmlns:xlink="http://www.w3.org/1999/xlink" x="0px" y="0px"
	 width="468px" height="629px" viewBox="71.5 80.5 468 629" enable-background="new 71.5 80.5 468 629" xml:space="preserve">
<g>
	<path fill="#FFCC75" d="M329.626,457.74h-47.253c-27.97,9.198-47.603,33.295-51.269,61.962h149.79
		C377.23,491.036,357.597,466.939,329.626,457.74z"/>
	<path fill="#F2EBD9" d="M306,392.634c-5.179,0-10.325-0.368-15.407-1.072l-0.02,46.646h30.853l-0.02-46.646
		C316.325,392.266,311.179,392.634,306,392.634z"/>
	<path fill="#FFCC75" d="M428.42,109.532H183.58l30.913,186.113c7.456,44.882,45.939,77.457,91.507,77.457
		s84.051-32.575,91.507-77.457L428.42,109.532z M217.937,197.169l-9.423-56.739c-0.884-5.32,2.712-10.351,8.033-11.233
		c5.327-0.889,10.351,2.712,11.233,8.033l9.423,56.739c0.884,5.32-2.712,10.351-8.033,11.233c-0.542,0.09-1.081,0.134-1.612,0.134
		C222.868,205.336,218.73,201.948,217.937,197.169z M306,353.57c-35.974,0-66.355-25.708-72.239-61.126l-9.425-56.74
		c-0.884-5.32,2.712-10.351,8.033-11.233c5.318-0.889,10.351,2.712,11.233,8.033l9.425,56.74
		c4.313,25.957,26.589,44.794,52.972,44.794c5.393,0,9.766,4.373,9.766,9.766C315.765,349.198,311.393,353.57,306,353.57z"/>
	<path fill="#F2EBD9" d="M369.059,643.404h16.277v-65.106H226.665v65.106h103.33c5.393,0,9.766,4.373,9.766,9.766h19.532
		C359.294,647.777,363.666,643.404,369.059,643.404z"/>
	<path fill="#FF6E1D" d="M187.6,539.234v143.234h236.798V539.234H187.6z M404.868,568.532v84.638c0,5.393-4.373,9.766-9.766,9.766
		h-26.043c-5.393,0-9.766-4.373-9.766-9.766h-19.532c0,5.393-4.373,9.766-9.766,9.766H216.899c-5.393,0-9.766-4.373-9.766-9.766
		v-84.638c0-5.393,4.373-9.766,9.766-9.766h178.203C400.495,558.766,404.868,563.139,404.868,568.532z"/>
	<path fill="#FFFFFF" d="M229.171,205.202c5.32-0.884,8.917-5.913,8.033-11.233l-9.423-56.739c-0.884-5.32-5.906-8.922-11.233-8.033
		c-5.32,0.884-8.917,5.913-8.033,11.233l9.423,56.739c0.793,4.779,4.932,8.167,9.621,8.167
		C228.09,205.336,228.629,205.293,229.171,205.202z"/>
	<path fill="#FFFFFF" d="M306,334.038c-26.381,0-48.659-18.839-52.972-44.794l-9.425-56.74c-0.884-5.32-5.916-8.922-11.233-8.033
		c-5.32,0.884-8.917,5.913-8.033,11.233l9.425,56.74c5.884,35.419,36.264,61.126,72.239,61.126c5.393,0,9.766-4.373,9.766-9.766
		S311.393,334.038,306,334.038z"/>
	<path fill="#082947" d="M524.648,116.225h-46.05c-4.776,0-8.852,3.455-9.633,8.166l-0.98,5.908
		c-2.41,14.508-14.395,27.218-28.502,31.836l10.093-60.768c0.47-2.831-0.328-5.725-2.184-7.916
		c-1.856-2.189-4.581-3.451-7.451-3.451H172.059c-2.87,0-5.594,1.262-7.449,3.451c-1.856,2.19-2.655,5.084-2.184,7.916
		l10.093,60.768c-14.106-4.617-26.092-17.327-28.502-31.836l-0.98-5.908c-0.783-4.712-4.857-8.166-9.633-8.166H87.352
		c-5.393,0-9.766,4.373-9.766,9.766c0,47.733,12.825,92.713,36.111,126.65c22.195,32.346,51.47,51.273,83.141,54.011
		c5.509,22.863,18.156,43.606,36.193,59.041c11.228,9.608,24.178,16.817,38.033,21.352l-0.023,54.011
		c-33.212,13.064-56.015,43.284-59.591,78.646h-33.616c-5.393,0-9.766,4.373-9.766,9.766v162.766c0,5.393,4.373,9.766,9.766,9.766
		h256.33c5.393,0,9.766-4.372,9.766-9.766V529.468c0-5.393-4.373-9.766-9.766-9.766h-33.616
		c-3.574-35.362-26.379-65.582-59.591-78.646l-0.023-54.011c13.855-4.535,26.804-11.744,38.033-21.352
		c18.038-15.435,30.685-36.178,36.193-59.041c31.67-2.74,60.947-21.665,83.141-54.011c23.287-33.937,36.111-78.915,36.111-126.65
		C534.414,120.597,530.042,116.225,524.648,116.225z M424.4,682.468H187.6V539.234h236.798v143.234H424.4z M231.104,519.702
		c3.665-28.666,23.299-52.764,51.269-61.962h47.253c27.97,9.198,47.603,33.295,51.269,61.962H231.104z M290.574,438.208l0.02-46.646
		c5.081,0.704,10.227,1.072,15.407,1.072c5.18,0,10.325-0.369,15.407-1.072l0.02,46.646H290.574z M306,373.102
		c-45.568,0-84.051-32.575-91.507-77.457L183.58,109.532h244.838l-30.913,186.113C390.051,340.527,351.568,373.102,306,373.102z
		 M97.312,135.757h27.863c5.068,23.986,26.622,43.629,50.8,47.187l17.205,103.583C141.371,278.116,100.458,214.444,97.312,135.757z
		 M418.82,286.526l17.205-103.583c24.178-3.557,45.731-23.199,50.8-47.187h27.863C511.542,214.444,470.629,278.116,418.82,286.526z"
		/>
	<path fill="#082947" d="M207.133,568.532v84.638c0,5.393,4.373,9.766,9.766,9.766h113.096c5.393,0,9.766-4.373,9.766-9.766
		c0-5.393-4.373-9.766-9.766-9.766h-103.33v-65.106h158.671v65.106h-16.277c-5.393,0-9.766,4.373-9.766,9.766
		c0,5.393,4.373,9.766,9.766,9.766h26.043c5.393,0,9.766-4.373,9.766-9.766v-84.638c0-5.393-4.373-9.766-9.766-9.766H216.899
		C211.506,558.766,207.133,563.139,207.133,568.532z"/>
</g>
</svg>
